<svg xmlns="http://www.w3.org/2000/svg" xmlns:xlink="http://www.w3.org/1999/xlink" xmlns:lucid="lucid" width="2017.33" height="2592"><g transform="translate(0 0)" lucid:page-tab-id="0eqBfotfVGlV"><path d="M0 0h2017.33v2592H0z" fill="#fff"/><path d="M673.98 425.08c3.33-2.9 8.7-2.9 12.04 0l67.96 59.55c3.33 2.9 3.33 7.63 0 10.55l-67.96 59.55c-3.33 2.9-8.7 2.9-12.04 0l-67.96-59.55c-3.33-2.92-3.33-7.64 0-10.55z" stroke="#eb6b6b" stroke-width="4" fill="#fff"/><use xlink:href="#a" transform="matrix(1,0,0,1,604.8,424.6059384067128) translate(56.28895061728395 37.890972222222224)"/><use xlink:href="#b" transform="matrix(1,0,0,1,604.8,424.6059384067128) translate(28.634629629629625 59.22430555555555)"/><use xlink:href="#c" transform="matrix(1,0,0,1,604.8,424.6059384067128) translate(74.01734567901234 59.22430555555555)"/><use xlink:href="#d" transform="matrix(1,0,0,1,604.8,424.6059384067128) translate(87.79512345679012 59.22430555555555)"/><use xlink:href="#e" transform="matrix(1,0,0,1,604.8,424.6059384067128) translate(20.23956790123456 80.5576388888889)"/><use xlink:href="#f" transform="matrix(1,0,0,1,604.8,424.6059384067128) translate(50.807469135802464 80.5576388888889)"/><use xlink:href="#g" transform="matrix(1,0,0,1,604.8,424.6059384067128) translate(114.01734567901235 80.5576388888889)"/><use xlink:href="#h" transform="matrix(1,0,0,1,604.8,424.6059384067128) translate(45.40006172839505 101.89097222222225)"/><path d="M860 693.37c0-4.42 3.58-8 8-8h144c4.42 0 8 3.58 8 8v103.46c0 4.42-3.58 8-8 8H868c-4.42 0-8-3.58-8-8z" stroke="#000" stroke-opacity="0" stroke-width="2" fill="#eb6b6b"/><use xlink:href="#i" transform="matrix(1,0,0,1,864.8000000000001,690.1677144201576) translate(16.808641975308642 48.359722222222224)"/><use xlink:href="#j" transform="matrix(1,0,0,1,864.8000000000001,690.1677144201576) translate(102.6851851851852 48.359722222222224)"/><use xlink:href="#k" transform="matrix(1,0,0,1,864.8000000000001,690.1677144201576) translate(27.672839506172846 69.69305555555556)"/><use xlink:href="#l" transform="matrix(1,0,0,1,864.8000000000001,690.1677144201576) translate(70.04320987654322 69.69305555555556)"/><path d="M320 693.37c0-4.42 3.58-8 8-8h144c4.42 0 8 3.58 8 8v103.46c0 4.42-3.58 8-8 8H328c-4.42 0-8-3.58-8-8z" stroke="#000" stroke-opacity="0" stroke-width="2" fill="#eb6b6b"/><use xlink:href="#i" transform="matrix(1,0,0,1,324.8,690.1677144201576) translate(16.808641975308642 48.359722222222224)"/><use xlink:href="#j" transform="matrix(1,0,0,1,324.8,690.1677144201576) translate(102.6851851851852 48.359722222222224)"/><use xlink:href="#m" transform="matrix(1,0,0,1,324.8,690.1677144201576) translate(24.191358024691365 69.69305555555556)"/><use xlink:href="#l" transform="matrix(1,0,0,1,324.8,690.1677144201576) translate(73.5246913580247 69.69305555555556)"/><path d="M503.38 622.6h-91.35l-3 .4-2.77 1.15-2.4 1.83-1.82 2.4-1.14 2.75-.4 3V669h-1v-34.9l.42-3.2 1.24-3 2-2.6 2.6-2 3-1.25 3.2-.42h91.42zm177.12-12.46l-.42 3.2-1.24 3-2 2.6-2.6 2-3 1.25-3.2.4H576.6v-1h91.35l3-.38 2.77-1.15 2.4-1.83 1.82-2.4 1.14-2.75.4-3.02v-50.73h1z" stroke="#333" stroke-width=".05" fill="#333"/><path d="M680.5 559.37h-1v-.48l1-.08z" fill="#333"/><path d="M680.52 559.4h-1.04v-.54l1.04-.07zm-1-.5v.44h.96v-.5z" stroke="#333" stroke-width=".05" fill="#333"/><path d="M400 683.75l-4.64-14.27h9.28z" fill="#333"/><path d="M400 685.37l-5.32-16.4h10.64zm-3.95-15.4l3.95 12.16 3.95-12.15z" stroke="#333" stroke-width=".05" fill="#333"/><use xlink:href="#n" transform="matrix(1,0,0,1,503.3796296296296,612.7770551238164) translate(0.005000000000002558 12.444444444444446)"/><path d="M928.03 621.6l3.2.43 3 1.24 2.6 2 2 2.6 1.25 3 .42 3.2v34.9h-1v-34.83l-.4-3-1.14-2.77-1.83-2.4-2.4-1.82L931 623l-3-.4h-80.5v-1zm-247.13-8.5l1.14 2.75 1.83 2.4 2.4 1.82 2.75 1.15 3 .4h80.5v1h-80.55l-3.2-.43-3-1.25-2.6-2-2-2.6-1.25-3-.42-3.2v-50.8h1v50.73z" stroke="#333" stroke-width=".05" fill="#333"/><path d="M680.5 559.37h-1v-.48l1-.08z" fill="#333"/><path d="M680.52 559.4h-1.04v-.54l1.04-.07zm-1-.5v.44h.96v-.5z" stroke="#333" stroke-width=".05" fill="#333"/><path d="M940 683.75l-4.64-14.27h9.28z" fill="#333"/><path d="M940 685.37l-5.32-16.4h10.64zm-3.95-15.4l3.95 12.16 3.95-12.15z" stroke="#333" stroke-width=".05" fill="#333"/><use xlink:href="#o" transform="matrix(1,0,0,1,772.5154320987654,612.7770551238164) translate(0.005000000000002558 12.444444444444446)"/><path d="M728 260c17.67 0 32 17.9 32 40s-14.33 40-32 40h-96c-17.67 0-32-17.9-32-40s14.33-40 32-40z" stroke="#000" stroke-opacity="0" stroke-width="2" fill="#c54242"/><use xlink:href="#p" transform="matrix(1,0,0,1,604.8,264.8) translate(15.302469135802465 28.515972222222224)"/><use xlink:href="#q" transform="matrix(1,0,0,1,604.8,264.8) translate(57.672839506172835 28.515972222222224)"/><use xlink:href="#r" transform="matrix(1,0,0,1,604.8,264.8) translate(111.00617283950618 28.515972222222224)"/><use xlink:href="#s" transform="matrix(1,0,0,1,604.8,264.8) translate(42.48765432098766 49.84930555555555)"/><path d="M680 340.5v64.07" stroke="#333" fill="none"/><path d="M680.5 340.5h-1v-.5h1z" stroke="#333" stroke-width=".05" fill="#333"/><path d="M680 419.33l-4.64-14.26h9.28z" stroke="#333" fill="#333"/><path d="M393.98 885.27c3.32-2.9 8.72-2.9 12.04 0l67.96 59.46c3.32 2.9 3.32 7.63 0 10.54l-67.96 59.46c-3.32 2.9-8.72 2.9-12.04 0l-67.96-59.46c-3.32-2.9-3.32-7.63 0-10.54z" stroke="#eb6b6b" stroke-width="4" fill="#fff"/><use xlink:href="#t" transform="matrix(1,0,0,1,325,885) translate(44.029999999999994 36.410000000000004)"/><use xlink:href="#u" transform="matrix(1,0,0,1,325,885) translate(22.579999999999995 58.01)"/><use xlink:href="#v" transform="matrix(1,0,0,1,325,885) translate(73.48 58.01)"/><use xlink:href="#w" transform="matrix(1,0,0,1,325,885) translate(29.029999999999998 79.61000000000001)"/><use xlink:href="#x" transform="matrix(1,0,0,1,325,885) translate(63.03 79.61000000000001)"/><use xlink:href="#y" transform="matrix(1,0,0,1,325,885) translate(105.98 79.61000000000001)"/><use xlink:href="#z" transform="matrix(1,0,0,1,325,885) translate(59.555 101.21000000000001)"/><path d="M400 805.33v59.43" stroke="#333" fill="none"/><path d="M400.5 805.35h-1v-.52h1z" stroke="#333" stroke-width=".05" fill="#333"/><path d="M400 879.53l-4.64-14.27h9.28z" stroke="#333" fill="#333"/><path d="M269.17 1040.5h-52.8v-1h52.8zm131.33-12.47l-.42 3.2-1.24 3-2 2.6-2.6 2-3 1.25-3.2.42h-36.06v-1h36l3-.4 2.76-1.14 2.4-1.83 1.82-2.4 1.14-2.75.4-3v-8.63h1z" stroke="#333" stroke-width=".05" fill="#333"/><path d="M400.5 1019.37h-1v-.48l1-.08z" fill="#333"/><path d="M400.52 1019.4h-1.04v-.54l1.04-.06zm-1-.5v.44h.96v-.5z" stroke="#333" stroke-width=".05" fill="#333"/><path d="M215.88 1044.64l-14.26-4.64 14.26-4.64z" fill="#333"/><path d="M216.38 1045.32L200 1040l16.38-5.32zm-13.14-5.32l12.14 3.95v-7.9z" stroke="#333" stroke-width=".05" fill="#333"/><use xlink:href="#A" transform="matrix(1,0,0,1,269.1651713199959,1032) translate(0.005000000000002558 10.666666666666668)"/><path d="M263.6 1176.93h-11.57l-3 .4-2.77 1.13-2.4 1.84-1.82 2.4-1.14 2.74-.4 3.02v129.16h-1V1188.4l.42-3.22 1.24-3 2-2.6 2.6-2 3-1.23 3.2-.42h11.65zm136.9-12.47l-.42 3.2-1.24 3-2 2.6-2.6 2-3 1.25-3.2.43h-11.65v-1h11.57l3-.4 2.77-1.14 2.4-1.84 1.82-2.4 1.14-2.75.4-3V1098h1zm0-82.46h-1v-62.65h1z" stroke="#333" stroke-width=".05" fill="#333"/><path d="M400.5 1019.37h-1v-.48l1-.08z" fill="#333"/><path d="M400.52 1019.4h-1.04v-.54l1.04-.06zm-1-.5v.44h.96v-.5z" stroke="#333" stroke-width=".05" fill="#333"/><path d="M240 1332.38l-4.64-14.26h9.28z" fill="#333"/><path d="M240 1334l-5.32-16.38h10.64zm-3.95-15.38l3.95 12.14 3.95-12.14z" stroke="#333" stroke-width=".05" fill="#333"/><use xlink:href="#B" transform="matrix(1,0,0,1,263.61111111111103,1168.4274212725966) translate(0.005000000000002558 10.666666666666668)"/><use xlink:href="#C" transform="matrix(1,0,0,1,263.61111111111103,1168.4274212725966) translate(48.52351851851853 10.666666666666668)"/><path d="M400.5 1317.97l.4 3 1.14 2.77 1.83 2.4 2.4 1.82 2.75 1.14 3 .4h91.6v1h-91.65l-3.2-.42-3-1.24-2.6-2-2-2.6-1.25-3-.42-3.2v-75.6h1zm0-91.54h-1V1098h1zm0-144.43h-1v-62.65h1z" stroke="#333" stroke-width=".05" fill="#333"/><path d="M400.5 1019.37h-1v-.48l1-.08z" fill="#333"/><path d="M400.52 1019.4h-1.04v-.54l1.04-.06zm-1-.5v.44h.96v-.5z" stroke="#333" stroke-width=".05" fill="#333"/><path d="M518.38 1330l-14.26 4.64v-9.28z" fill="#333"/><path d="M520 1330l-16.38 5.32v-10.64zm-15.38 3.95l12.14-3.95-12.14-3.95z" stroke="#333" stroke-width=".05" fill="#333"/><use xlink:href="#D" transform="matrix(1,0,0,1,311.25925925925924,1226.4274212725966) translate(0.0049999999999954525 10.666666666666668)"/><use xlink:href="#E" transform="matrix(1,0,0,1,311.25925925925924,1226.4274212725966) translate(76.8938888888889 10.666666666666668)"/><path d="M520 1048c0-4.42 3.58-8 8-8h124c4.42 0 8 3.58 8 8v84c0 4.42-3.58 8-8 8H528c-4.42 0-8-3.58-8-8z" stroke="#000" stroke-opacity="0" stroke-width="2" fill="#eb6b6b"/><use xlink:href="#F" transform="matrix(1,0,0,1,532,1052) translate(2.0999999999999943 31.025)"/><use xlink:href="#G" transform="matrix(1,0,0,1,532,1052) translate(65.95 31.025)"/><use xlink:href="#H" transform="matrix(1,0,0,1,532,1052) translate(31.025 52.625)"/><path d="M501.5 1089v2H454v-2zM401 1077.93l.38 2.92.48 1.15h-2.17l-.27-.63-.43-3.3v-58.22h2z" stroke="#c92d39" stroke-width=".05" fill="#c92d39"/><path d="M401 1019.88h-2v-1.02l.22.05 1.78-.1z" fill="#c92d39"/><path d="M401.02 1019.9h-2.04v-1.07l.24.05 1.8-.12zm-1.8-.97l-.2-.04v.96h1.96v-1.04z" stroke="#c92d39" stroke-width=".05" fill="#c92d39"/><path d="M516.76 1090l-14.26 4.64v-9.28z" fill="#c92d39"/><path d="M520 1090l-18.5 6v-12zm-16.5 3.26l10.03-3.26-10.03-3.26z" stroke="#c92d39" stroke-width=".05" fill="#c92d39"/><use xlink:href="#I" transform="matrix(1,0,0,1,394.85334719852256,1082) translate(0.004999999999999005 10.666666666666668)"/><path d="M60 1003.6c0-4.42 3.58-8 8-8h124c4.42 0 8 3.58 8 8v72.8c0 4.42-3.58 8-8 8H68c-4.42 0-8-3.58-8-8z" stroke="#000" stroke-opacity="0" stroke-width="2" fill="#eb6b6b"/><use xlink:href="#J" transform="matrix(1,0,0,1,72,1007.6) translate(24.075000000000003 14.4)"/><use xlink:href="#K" transform="matrix(1,0,0,1,72,1007.6) translate(74.025 14.4)"/><use xlink:href="#L" transform="matrix(1,0,0,1,72,1007.6) translate(7 36)"/><use xlink:href="#M" transform="matrix(1,0,0,1,72,1007.6) translate(89 36)"/><use xlink:href="#N" transform="matrix(1,0,0,1,72,1007.6) translate(21 57.6)"/><path d="M160 1342c0-4.42 3.58-8 8-8h144c4.42 0 8 3.58 8 8v116c0 4.42-3.58 8-8 8H168c-4.42 0-8-3.58-8-8z" stroke="#000" stroke-opacity="0" stroke-width="2" fill="#eb6b6b"/><use xlink:href="#O" transform="matrix(1,0,0,1,172,1346) translate(17.049999999999997 14.4)"/><use xlink:href="#P" transform="matrix(1,0,0,1,172,1346) translate(84 14.4)"/><use xlink:href="#Q" transform="matrix(1,0,0,1,172,1346) translate(7.599999999999994 36)"/><use xlink:href="#R" transform="matrix(1,0,0,1,172,1346) translate(44.5 36)"/><use xlink:href="#S" transform="matrix(1,0,0,1,172,1346) translate(59.5 36)"/><use xlink:href="#T" transform="matrix(1,0,0,1,172,1346) translate(7.049999999999997 57.6)"/><use xlink:href="#U" transform="matrix(1,0,0,1,172,1346) translate(60.95 57.6)"/><use xlink:href="#V" transform="matrix(1,0,0,1,172,1346) translate(99.95 57.6)"/><use xlink:href="#W" transform="matrix(1,0,0,1,172,1346) translate(7.100000000000001 79.20000000000002)"/><use xlink:href="#X" transform="matrix(1,0,0,1,172,1346) translate(56.050000000000004 79.20000000000002)"/><use xlink:href="#Y" transform="matrix(1,0,0,1,172,1346) translate(95.94999999999999 79.20000000000002)"/><use xlink:href="#Z" transform="matrix(1,0,0,1,172,1346) translate(5.074999999999996 100.80000000000001)"/><use xlink:href="#aa" transform="matrix(1,0,0,1,172,1346) translate(53.074999999999996 100.80000000000001)"/><use xlink:href="#ab" transform="matrix(1,0,0,1,172,1346) translate(91.975 100.80000000000001)"/><path d="M520 1288c0-4.42 3.58-8 8-8h144c4.42 0 8 3.58 8 8v84c0 4.42-3.58 8-8 8H528c-4.42 0-8-3.58-8-8z" stroke="#000" stroke-opacity="0" stroke-width="2" fill="#eb6b6b"/><use xlink:href="#J" transform="matrix(1,0,0,1,532,1292) translate(34.075 19.15)"/><use xlink:href="#K" transform="matrix(1,0,0,1,532,1292) translate(84.025 19.15)"/><use xlink:href="#ac" transform="matrix(1,0,0,1,532,1292) translate(21.574999999999996 40.75)"/><use xlink:href="#ad" transform="matrix(1,0,0,1,532,1292) translate(15.524999999999999 62.35)"/><path d="M940 805.33v45.85c0 .13-.1.24-.24.24-.13 0-.24.1-.24.24v29.96" stroke="#333" fill="none"/><path d="M940.5 805.35h-1v-.52h1z" stroke="#333" stroke-width=".05" fill="#333"/><path d="M939.52 896.38l-4.64-14.26h9.27z" stroke="#333" fill="#333"/><path d="M878.9 907.73c1.14-4.27 5.64-7.73 10.06-7.73h142.66c4.42 0 7.08 3.46 5.94 7.73l-17.2 64.54c-1.15 4.27-5.65 7.73-10.07 7.73H867.6c-4.4 0-7.07-3.46-5.93-7.73z" stroke="#eb6b6b" stroke-width="4" fill="#fff"/><use xlink:href="#ae" transform="matrix(1,0,0,1,864.6249991169939,905) translate(25.555 27.525)"/><use xlink:href="#af" transform="matrix(1,0,0,1,864.6249991169939,905) translate(70.555 27.525)"/><use xlink:href="#ag" transform="matrix(1,0,0,1,864.6249991169939,905) translate(26.055 49.125)"/><use xlink:href="#ah" transform="matrix(1,0,0,1,864.6249991169939,905) translate(61.055 49.125)"/><path d="M949.62 982.5v38.8c0 .1.1.2.2.2s.18.07.18.17v22.92" stroke="#333" fill="none"/><path d="M950.12 982.5h-1v-.5h1z" stroke="#333" stroke-width=".05" fill="#333"/><path d="M950 1059.36l-4.64-14.27h9.28z" stroke="#333" fill="#333"/><path d="M943.7 1064.9c3.47-2.7 9.13-2.7 12.6 0l77.4 60.2c3.47 2.7 3.47 7.1 0 9.8l-77.4 60.2c-3.47 2.7-9.13 2.7-12.6 0l-77.4-60.2c-3.47-2.7-3.47-7.1 0-9.8z" stroke="#eb6b6b" stroke-width="4" fill="#fff"/><use xlink:href="#ai" transform="matrix(1,0,0,1,865.0000000000001,1065) translate(78 47)"/><use xlink:href="#aj" transform="matrix(1,0,0,1,865.0000000000001,1065) translate(4.1000000000000085 68.60000000000001)"/><use xlink:href="#ak" transform="matrix(1,0,0,1,865.0000000000001,1065) translate(52.55 90.20000000000002)"/><path d="M1079.12 1131h-39.93v-2h39.92zm42.38-.6h-22.42v-2h22.42z" stroke="#c92d39" stroke-width=".05" fill="#c92d39"/><path d="M1039.22 1131h-1.04l.03-2h1.02z" fill="#c92d39"/><path d="M1039.24 1131.03h-1.1l.05-2.06h1.04zm-1-2l-.04 1.94h1v-1.94z" stroke="#c92d39" stroke-width=".05" fill="#c92d39"/><path d="M1136.76 1129.4l-14.26 4.64v-9.28z" fill="#c92d39"/><path d="M1140 1129.4l-18.5 6v-12zm-16.5 3.26l10.03-3.26-10.03-3.26z" stroke="#c92d39" stroke-width=".05" fill="#c92d39"/><use xlink:href="#al" transform="matrix(1,0,0,1,1079.1153119408534,1121.6999999999998) translate(0.005000000000000782 10.666666666666668)"/><path d="M1140 1092.4c0-4.42 3.58-8 8-8h164c4.42 0 8 3.58 8 8v74c0 4.42-3.58 8-8 8h-164c-4.42 0-8-3.58-8-8z" stroke="#000" stroke-opacity="0" stroke-width="2" fill="#eb6b6b"/><use xlink:href="#F" transform="matrix(1,0,0,1,1152,1096.4) translate(5.700000000000003 37.0875)"/><use xlink:href="#am" transform="matrix(1,0,0,1,1152,1096.4) translate(69.55000000000001 37.0875)"/><use xlink:href="#an" transform="matrix(1,0,0,1,1152,1096.4) translate(112.45 37.0875)"/><path d="M1230 1083.9V757.1c0-6.63-5.37-12-12-12h-181.62" stroke="#333" fill="none"/><path d="M1230.5 1084.4h-1v-.5h1z" stroke="#333" stroke-width=".05" fill="#333"/><path d="M1021.62 745.1l14.26-4.63v9.27z" stroke="#333" fill="#333"/><path d="M951 1315.5h-2v-41h2zm0-57h-2v-58.47h2z" stroke="#7ab648" stroke-width=".05" fill="#7ab648"/><path d="M951 1200.05h-2v-1.02h2z" fill="#7ab648"/><path d="M951.02 1200.08H949V1199H951zm-2-1.02v.97H951v-1z" stroke="#7ab648" stroke-width=".05" fill="#7ab648"/><path d="M950 1330.76l-4.64-14.26h9.28z" fill="#7ab648"/><path d="M950 1334l-6-18.5h12zm-3.26-16.5l3.26 10.03 3.26-10.03z" stroke="#7ab648" stroke-width=".05" fill="#7ab648"/><g><use xlink:href="#ao" transform="matrix(1,0,0,1,936.6666666666667,1258.5126591813155) translate(0.005000000000000782 10.666666666666668)"/></g><path d="M870 1342c0-4.42 3.58-8 8-8h144c4.42 0 8 3.58 8 8v104c0 4.42-3.58 8-8 8H878c-4.42 0-8-3.58-8-8z" stroke="#000" stroke-opacity="0" stroke-width="2" fill="#eb6b6b"/><g><use xlink:href="#F" transform="matrix(1,0,0,1,882,1346) translate(6.099999999999994 41.4)"/><use xlink:href="#ap" transform="matrix(1,0,0,1,882,1346) translate(69.95 41.4)"/><use xlink:href="#aq" transform="matrix(1,0,0,1,882,1346) translate(16.049999999999997 63)"/><use xlink:href="#H" transform="matrix(1,0,0,1,882,1346) translate(66 63)"/></g><path d="M943.98 1545.27c3.32-2.9 8.72-2.9 12.04 0l67.96 59.46c3.32 2.9 3.32 7.63 0 10.54l-67.96 59.46c-3.32 2.9-8.72 2.9-12.04 0l-67.96-59.46c-3.32-2.9-3.32-7.63 0-10.54z" stroke="#eb6b6b" stroke-width="4" fill="#fff"/><g><use xlink:href="#t" transform="matrix(1,0,0,1,875,1545) translate(44.029999999999994 36.410000000000004)"/><use xlink:href="#u" transform="matrix(1,0,0,1,875,1545) translate(22.579999999999995 58.01)"/><use xlink:href="#v" transform="matrix(1,0,0,1,875,1545) translate(73.48 58.01)"/><use xlink:href="#w" transform="matrix(1,0,0,1,875,1545) translate(29.029999999999998 79.61000000000001)"/><use xlink:href="#x" transform="matrix(1,0,0,1,875,1545) translate(63.03 79.61000000000001)"/><use xlink:href="#y" transform="matrix(1,0,0,1,875,1545) translate(105.98 79.61000000000001)"/><use xlink:href="#z" transform="matrix(1,0,0,1,875,1545) translate(59.555 101.21000000000001)"/></g><path d="M950 1454.5v70.26" stroke="#333" fill="none"/><path d="M950.5 1454.5h-1v-.5h1z" stroke="#333" stroke-width=".05" fill="#333"/><path d="M950 1539.53l-4.64-14.27h9.28z" stroke="#333" fill="#333"/><path d="M819.17 1750.5h-102.8v-1h102.8zm131.33-12.47l-.42 3.2-1.24 3-2 2.6-2.6 2-3 1.25-3.2.42h-36.06v-1h36l3-.4 2.76-1.14 2.4-1.83 1.82-2.4 1.14-2.75.4-3v-58.63h1z" stroke="#333" stroke-width=".05" fill="#333"/><path d="M950.5 1679.37h-1v-.48l1-.08z" fill="#333"/><path d="M950.52 1679.4h-1.04v-.54l1.04-.06zm-1-.5v.44h.96v-.5z" stroke="#333" stroke-width=".05" fill="#333"/><path d="M715.88 1754.64l-14.26-4.64 14.26-4.64z" fill="#333"/><path d="M716.38 1755.32L700 1750l16.38-5.32zm-13.14-5.32l12.14 3.95v-7.9z" stroke="#333" stroke-width=".05" fill="#333"/><g><use xlink:href="#A" transform="matrix(1,0,0,1,819.1651713199959,1742) translate(0.005000000000002558 10.666666666666668)"/></g><path d="M1160.08 1837.77l.42 3.2v102.65h-1v-102.58l-.4-3-.42-1.03h1.1zM950.9 1820l1.14 2.75 1.83 2.4 2.4 1.82 2.75 1.15 3 .4h47.54v1h-47.6l-3.2-.43-3-1.25-2.6-2-2-2.6-1.24-3-.42-3.2v-137.7h1v137.63z" stroke="#333" stroke-width=".05" fill="#333"/><path d="M950.5 1679.37h-1v-.48l1-.08z" fill="#333"/><path d="M950.52 1679.4h-1.04v-.54l1.04-.06zm-1-.5v.44h.96v-.5z" stroke="#333" stroke-width=".05" fill="#333"/><path d="M1161.85 1952.68v-8.56h2.8zm-3.7 0l-2.8-8.56h2.8z" fill="#333"/><path d="M1160 1960l-.08-.26h.16zm1.85-5.7v-3.24l2.1-6.44h-2.1v-.88h-3.7v.88h-2.1l2.1 6.44v3.24l-3.47-10.68h10.64z" stroke="#333" stroke-width=".05" fill="#333"/><g><use xlink:href="#D" transform="matrix(1,0,0,1,1009.5600716743487,1821.0102305625178) translate(0.0049999999999954525 10.666666666666668)"/><use xlink:href="#E" transform="matrix(1,0,0,1,1009.5600716743487,1821.0102305625178) translate(76.8938888888889 10.666666666666668)"/></g><g><use xlink:href="#ar" transform="matrix(1,0,0,1,1158.148148148148,1943.742862167913) translate(0.004999999999999893 10.666666666666668)"/></g><path d="M951 1707.93l.38 2.92 1.1 2.64 1.75 2.27 2.28 1.76 2.65 1.1 2.92.37h22.78v2h-22.92l-3.3-.43-3.13-1.3-2.7-2.07-2.07-2.7-1.3-3.13-.43-3.3v-28.22h2zm150.5 11.07v2H1044v-2z" stroke="#c92d39" stroke-width=".05" fill="#c92d39"/><path d="M951 1679.88h-2v-1.02l.22.05 1.78-.1z" fill="#c92d39"/><path d="M951.02 1679.9H949v-1.07l.24.05 1.8-.12zm-1.8-.97l-.2-.04v.96H951v-1.04z" stroke="#c92d39" stroke-width=".05" fill="#c92d39"/><path d="M1116.76 1720l-14.26 4.64v-9.28z" fill="#c92d39"/><path d="M1120 1720l-18.5 6v-12zm-16.5 3.26l10.03-3.26-10.03-3.26z" stroke="#c92d39" stroke-width=".05" fill="#c92d39"/><g><use xlink:href="#I" transform="matrix(1,0,0,1,984.8533471985227,1712) translate(0.004999999999999005 10.666666666666668)"/></g><path d="M1120 1688c0-4.42 3.58-8 8-8h144c4.42 0 8 3.58 8 8v64c0 4.42-3.58 8-8 8h-144c-4.42 0-8-3.58-8-8z" stroke="#000" stroke-opacity="0" stroke-width="2" fill="#eb6b6b"/><g><use xlink:href="#F" transform="matrix(1,0,0,1,1132,1692) translate(12.099999999999994 21.4)"/><use xlink:href="#G" transform="matrix(1,0,0,1,1132,1692) translate(75.95 21.4)"/><use xlink:href="#aq" transform="matrix(1,0,0,1,1132,1692) translate(16.049999999999997 43)"/><use xlink:href="#H" transform="matrix(1,0,0,1,1132,1692) translate(66 43)"/></g><path d="M1280.5 1720h83.12" stroke="#333" fill="none"/><path d="M1280.5 1720.5h-.5v-1h.5z" stroke="#333" stroke-width=".05" fill="#333"/><path d="M1378.38 1720l-14.26 4.64v-9.28z" stroke="#333" fill="#333"/><path d="M1384.6 1677.73c1.14-4.27 5.65-7.73 10.07-7.73H1552c4.42 0 7.08 3.46 5.94 7.73l-22.55 84.54c-1.14 4.27-5.65 7.73-10.07 7.73H1368c-4.42 0-7.08-3.46-5.94-7.73z" stroke="#eb6b6b" stroke-width="4" fill="#fff"/><g><use xlink:href="#as" transform="matrix(1,0,0,1,1365,1675) translate(30.079999999999995 25.65)"/><use xlink:href="#at" transform="matrix(1,0,0,1,1365,1675) translate(98.98 25.65)"/><use xlink:href="#au" transform="matrix(1,0,0,1,1365,1675) translate(132.98000000000002 25.65)"/><use xlink:href="#ag" transform="matrix(1,0,0,1,1365,1675) translate(42.03 47.25)"/><use xlink:href="#av" transform="matrix(1,0,0,1,1365,1675) translate(77.03 47.25)"/><use xlink:href="#aw" transform="matrix(1,0,0,1,1365,1675) translate(116.03 47.25)"/><use xlink:href="#ax" transform="matrix(1,0,0,1,1365,1675) translate(61.029999999999994 68.85000000000001)"/></g><path d="M1080 1968c0-4.42 3.58-8 8-8h144c4.42 0 8 3.58 8 8v64c0 4.42-3.58 8-8 8h-144c-4.42 0-8-3.58-8-8z" stroke="#000" stroke-opacity="0" stroke-width="2" fill="#eb6b6b"/><g><use xlink:href="#ay" transform="matrix(1,0,0,1,1092,1972) translate(38.574999999999996 14.4)"/><use xlink:href="#az" transform="matrix(1,0,0,1,1092,1972) translate(20.025 36)"/><use xlink:href="#H" transform="matrix(1,0,0,1,1092,1972) translate(41.025 57.6)"/></g><path d="M1160 2040.5v41.12" stroke="#333" fill="none"/><path d="M1160.5 2040.5h-1v-.5h1z" stroke="#333" stroke-width=".05" fill="#333"/><path d="M1160 2096.38l-4.64-14.26h9.28z" stroke="#333" fill="#333"/><path d="M1109.94 2107.73c1.14-4.27 5.64-7.73 10.06-7.73h112c4.42 0 7.08 3.46 5.94 7.73l-27.88 104.54c-1.14 4.27-5.64 7.73-10.06 7.73h-112c-4.42 0-7.08-3.46-5.94-7.73z" stroke="#eb6b6b" stroke-width="4" fill="#fff"/><g><use xlink:href="#as" transform="matrix(1,0,0,1,1085,2105) translate(31.554999999999996 38.4625)"/><use xlink:href="#aA" transform="matrix(1,0,0,1,1085,2105) translate(100.45500000000001 38.4625)"/><use xlink:href="#aB" transform="matrix(1,0,0,1,1085,2105) translate(25.53 60.0625)"/><use xlink:href="#aC" transform="matrix(1,0,0,1,1085,2105) translate(54.53 60.0625)"/><use xlink:href="#aD" transform="matrix(1,0,0,1,1085,2105) translate(103.53 60.0625)"/><use xlink:href="#aE" transform="matrix(1,0,0,1,1085,2105) translate(16.529999999999994 81.66250000000001)"/></g><path d="M540 1708c0-4.42 3.58-8 8-8h144c4.42 0 8 3.58 8 8v84c0 4.42-3.58 8-8 8H548c-4.42 0-8-3.58-8-8z" stroke="#000" stroke-opacity="0" stroke-width="2" fill="#eb6b6b"/><g><use xlink:href="#aF" transform="matrix(1,0,0,1,552,1712) translate(10.124999999999993 14.4)"/><use xlink:href="#aG" transform="matrix(1,0,0,1,552,1712) translate(93.975 14.4)"/><use xlink:href="#aH" transform="matrix(1,0,0,1,552,1712) translate(34 36)"/><use xlink:href="#aI" transform="matrix(1,0,0,1,552,1712) translate(15.549999999999997 57.6)"/><use xlink:href="#H" transform="matrix(1,0,0,1,552,1712) translate(41.025 79.20000000000002)"/></g><path d="M620 1800.5v81.12" stroke="#333" fill="none"/><path d="M620.5 1800.5h-1v-.5h1z" stroke="#333" stroke-width=".05" fill="#333"/><path d="M620 1896.38l-4.64-14.26h9.28z" stroke="#333" fill="#333"/><path d="M569.94 1907.73c1.14-4.27 5.64-7.73 10.06-7.73h112c4.42 0 7.08 3.46 5.94 7.73l-27.88 104.54c-1.14 4.27-5.64 7.73-10.06 7.73H548c-4.42 0-7.08-3.46-5.94-7.73z" stroke="#eb6b6b" stroke-width="4" fill="#fff"/><g><use xlink:href="#as" transform="matrix(1,0,0,1,545,1905) translate(37.05499999999999 17.8375)"/><use xlink:href="#aA" transform="matrix(1,0,0,1,545,1905) translate(105.95500000000001 17.8375)"/><use xlink:href="#aJ" transform="matrix(1,0,0,1,545,1905) translate(29.529999999999998 39.4375)"/><use xlink:href="#aK" transform="matrix(1,0,0,1,545,1905) translate(92.53 39.4375)"/><use xlink:href="#aL" transform="matrix(1,0,0,1,545,1905) translate(35.504999999999995 61.0375)"/><use xlink:href="#aM" transform="matrix(1,0,0,1,545,1905) translate(14.08 82.63750000000002)"/><use xlink:href="#aN" transform="matrix(1,0,0,1,545,1905) translate(83.93 82.63750000000002)"/><use xlink:href="#aO" transform="matrix(1,0,0,1,545,1905) translate(24.505000000000003 104.23750000000001)"/><use xlink:href="#aP" transform="matrix(1,0,0,1,545,1905) translate(85.505 104.23750000000001)"/></g><defs><path fill="#333" d="M232-93c-1 65-40 97-104 97C67 4 28-28 28-90v-158h33c8 89-33 224 67 224 102 0 64-133 71-224h33v155" id="aQ"/><path fill="#333" d="M135-143c-3-34-86-38-87 0 15 53 115 12 119 90S17 21 10-45l28-5c4 36 97 45 98 0-10-56-113-15-118-90-4-57 82-63 122-42 12 7 21 19 24 35" id="aR"/><path fill="#333" d="M100-194c63 0 86 42 84 106H49c0 40 14 67 53 68 26 1 43-12 49-29l28 8c-11 28-37 45-77 45C44 4 14-33 15-96c1-61 26-98 85-98zm52 81c6-60-76-77-97-28-3 7-6 17-6 28h103" id="aS"/><path fill="#333" d="M114-163C36-179 61-72 57 0H25l-1-190h30c1 12-1 29 2 39 6-27 23-49 58-41v29" id="aT"/><g id="a"><use transform="matrix(0.04938271604938272,0,0,0.04938271604938272,0,0)" xlink:href="#aQ"/><use transform="matrix(0.04938271604938272,0,0,0.04938271604938272,12.790123456790125,0)" xlink:href="#aR"/><use transform="matrix(0.04938271604938272,0,0,0.04938271604938272,21.679012345679013,0)" xlink:href="#aS"/><use transform="matrix(0.04938271604938272,0,0,0.04938271604938272,31.555555555555557,0)" xlink:href="#aT"/></g><path fill="#333" d="M115-194c55 1 70 41 70 98S169 2 115 4C84 4 66-9 55-30l1 105H24l-1-265h31l2 30c10-21 28-34 59-34zm-8 174c40 0 45-34 45-75s-6-73-45-74c-42 0-51 32-51 76 0 43 10 73 51 73" id="aU"/><path fill="#333" d="M24-231v-30h32v30H24zM24 0v-190h32V0H24" id="aV"/><path fill="#333" d="M96-169c-40 0-48 33-48 73s9 75 48 75c24 0 41-14 43-38l32 2c-6 37-31 61-74 61-59 0-76-41-82-99-10-93 101-131 147-64 4 7 5 14 7 22l-32 3c-4-21-16-35-41-35" id="aW"/><path fill="#333" d="M143 0L79-87 56-68V0H24v-261h32v163l83-92h37l-77 82L181 0h-38" id="aX"/><g id="b"><use transform="matrix(0.04938271604938272,0,0,0.04938271604938272,0,0)" xlink:href="#aU"/><use transform="matrix(0.04938271604938272,0,0,0.04938271604938272,9.876543209876544,0)" xlink:href="#aV"/><use transform="matrix(0.04938271604938272,0,0,0.04938271604938272,13.777777777777779,0)" xlink:href="#aW"/><use transform="matrix(0.04938271604938272,0,0,0.04938271604938272,22.666666666666668,0)" xlink:href="#aX"/><use transform="matrix(0.04938271604938272,0,0,0.04938271604938272,31.555555555555557,0)" xlink:href="#aR"/></g><path fill="#333" d="M101-234c-31-9-42 10-38 44h38v23H63V0H32v-167H5v-23h27c-7-52 17-82 69-68v24" id="aY"/><g id="c"><use transform="matrix(0.04938271604938272,0,0,0.04938271604938272,0,0)" xlink:href="#aV"/><use transform="matrix(0.04938271604938272,0,0,0.04938271604938272,3.901234567901235,0)" xlink:href="#aY"/></g><path fill="#333" d="M59-47c-2 24 18 29 38 22v24C64 9 27 4 27-40v-127H5v-23h24l9-43h21v43h35v23H59v120" id="aZ"/><path fill="#333" d="M106-169C34-169 62-67 57 0H25v-261h32l-1 103c12-21 28-36 61-36 89 0 53 116 60 194h-32v-121c2-32-8-49-39-48" id="ba"/><path fill="#333" d="M179-190L93 31C79 59 56 82 12 73V49c39 6 53-20 64-50L1-190h34L92-34l54-156h33" id="bb"/><g id="d"><use transform="matrix(0.04938271604938272,0,0,0.04938271604938272,0,0)" xlink:href="#aZ"/><use transform="matrix(0.04938271604938272,0,0,0.04938271604938272,4.938271604938272,0)" xlink:href="#ba"/><use transform="matrix(0.04938271604938272,0,0,0.04938271604938272,14.814814814814817,0)" xlink:href="#aS"/><use transform="matrix(0.04938271604938272,0,0,0.04938271604938272,24.69135802469136,0)" xlink:href="#bb"/></g><path fill="#333" d="M141-36C126-15 110 5 73 4 37 3 15-17 15-53c-1-64 63-63 125-63 3-35-9-54-41-54-24 1-41 7-42 31l-33-3c5-37 33-52 76-52 45 0 72 20 72 64v82c-1 20 7 32 28 27v20c-31 9-61-2-59-35zM48-53c0 20 12 33 32 33 41-3 63-29 60-74-43 2-92-5-92 41" id="bc"/><g id="e"><use transform="matrix(0.04938271604938272,0,0,0.04938271604938272,0,0)" xlink:href="#bc"/><use transform="matrix(0.04938271604938272,0,0,0.04938271604938272,9.876543209876544,0)" xlink:href="#aT"/><use transform="matrix(0.04938271604938272,0,0,0.04938271604938272,15.753086419753087,0)" xlink:href="#aS"/></g><path fill="#333" d="M84 4C-5 8 30-112 23-190h32v120c0 31 7 50 39 49 72-2 45-101 50-169h31l1 190h-30c-1-10 1-25-2-33-11 22-28 36-60 37" id="bd"/><path fill="#333" d="M85-194c31 0 48 13 60 33l-1-100h32l1 261h-30c-2-10 0-23-3-31C134-8 116 4 85 4 32 4 16-35 15-94c0-66 23-100 70-100zm9 24c-40 0-46 34-46 75 0 40 6 74 45 74 42 0 51-32 51-76 0-42-9-74-50-73" id="be"/><path fill="#333" d="M117-194c89-4 53 116 60 194h-32v-121c0-31-8-49-39-48C34-167 62-67 57 0H25l-1-190h30c1 10-1 24 2 32 11-22 29-35 61-36" id="bf"/><g id="f"><use transform="matrix(0.04938271604938272,0,0,0.04938271604938272,0,0)" xlink:href="#aR"/><use transform="matrix(0.04938271604938272,0,0,0.04938271604938272,8.88888888888889,0)" xlink:href="#aZ"/><use transform="matrix(0.04938271604938272,0,0,0.04938271604938272,13.827160493827162,0)" xlink:href="#bd"/><use transform="matrix(0.04938271604938272,0,0,0.04938271604938272,23.703703703703706,0)" xlink:href="#be"/><use transform="matrix(0.04938271604938272,0,0,0.04938271604938272,33.580246913580254,0)" xlink:href="#aS"/><use transform="matrix(0.04938271604938272,0,0,0.04938271604938272,43.4567901234568,0)" xlink:href="#bf"/><use transform="matrix(0.04938271604938272,0,0,0.04938271604938272,53.333333333333336,0)" xlink:href="#aZ"/></g><path fill="#333" d="M100-194c62-1 85 37 85 99 1 63-27 99-86 99S16-35 15-95c0-66 28-99 85-99zM99-20c44 1 53-31 53-75 0-43-8-75-51-75s-53 32-53 75 10 74 51 75" id="bg"/><g id="g"><use transform="matrix(0.04938271604938272,0,0,0.04938271604938272,0,0)" xlink:href="#bg"/><use transform="matrix(0.04938271604938272,0,0,0.04938271604938272,9.876543209876544,0)" xlink:href="#aT"/></g><g id="h"><use transform="matrix(0.04938271604938272,0,0,0.04938271604938272,0,0)" xlink:href="#aZ"/><use transform="matrix(0.04938271604938272,0,0,0.04938271604938272,4.938271604938272,0)" xlink:href="#aS"/><use transform="matrix(0.04938271604938272,0,0,0.04938271604938272,14.814814814814817,0)" xlink:href="#bc"/><use transform="matrix(0.04938271604938272,0,0,0.04938271604938272,24.69135802469136,0)" xlink:href="#aW"/><use transform="matrix(0.04938271604938272,0,0,0.04938271604938272,33.580246913580254,0)" xlink:href="#ba"/><use transform="matrix(0.04938271604938272,0,0,0.04938271604938272,43.4567901234568,0)" xlink:href="#aS"/><use transform="matrix(0.04938271604938272,0,0,0.04938271604938272,53.333333333333336,0)" xlink:href="#aT"/></g><path fill="#fff" d="M30-248c87 1 191-15 191 75 0 78-77 80-158 76V0H30v-248zm33 125c57 0 124 11 124-50 0-59-68-47-124-48v98" id="bh"/><path fill="#fff" d="M114-163C36-179 61-72 57 0H25l-1-190h30c1 12-1 29 2 39 6-27 23-49 58-41v29" id="bi"/><path fill="#fff" d="M100-194c63 0 86 42 84 106H49c0 40 14 67 53 68 26 1 43-12 49-29l28 8c-11 28-37 45-77 45C44 4 14-33 15-96c1-61 26-98 85-98zm52 81c6-60-76-77-97-28-3 7-6 17-6 28h103" id="bj"/><path fill="#fff" d="M135-143c-3-34-86-38-87 0 15 53 115 12 119 90S17 21 10-45l28-5c4 36 97 45 98 0-10-56-113-15-118-90-4-57 82-63 122-42 12 7 21 19 24 35" id="bk"/><path fill="#fff" d="M117-194c89-4 53 116 60 194h-32v-121c0-31-8-49-39-48C34-167 62-67 57 0H25l-1-190h30c1 10-1 24 2 32 11-22 29-35 61-36" id="bl"/><path fill="#fff" d="M59-47c-2 24 18 29 38 22v24C64 9 27 4 27-40v-127H5v-23h24l9-43h21v43h35v23H59v120" id="bm"/><path fill="#fff" d="M85-194c31 0 48 13 60 33l-1-100h32l1 261h-30c-2-10 0-23-3-31C134-8 116 4 85 4 32 4 16-35 15-94c0-66 23-100 70-100zm9 24c-40 0-46 34-46 75 0 40 6 74 45 74 42 0 51-32 51-76 0-42-9-74-50-73" id="bn"/><g id="i"><use transform="matrix(0.04938271604938272,0,0,0.04938271604938272,0,0)" xlink:href="#bh"/><use transform="matrix(0.04938271604938272,0,0,0.04938271604938272,11.851851851851853,0)" xlink:href="#bi"/><use transform="matrix(0.04938271604938272,0,0,0.04938271604938272,17.728395061728396,0)" xlink:href="#bj"/><use transform="matrix(0.04938271604938272,0,0,0.04938271604938272,27.60493827160494,0)" xlink:href="#bk"/><use transform="matrix(0.04938271604938272,0,0,0.04938271604938272,36.49382716049383,0)" xlink:href="#bj"/><use transform="matrix(0.04938271604938272,0,0,0.04938271604938272,46.370370370370374,0)" xlink:href="#bl"/><use transform="matrix(0.04938271604938272,0,0,0.04938271604938272,56.24691358024692,0)" xlink:href="#bm"/><use transform="matrix(0.04938271604938272,0,0,0.04938271604938272,61.18518518518519,0)" xlink:href="#bj"/><use transform="matrix(0.04938271604938272,0,0,0.04938271604938272,71.06172839506173,0)" xlink:href="#bn"/></g><path fill="#fff" d="M206 0h-36l-40-164L89 0H53L-1-190h32L70-26l43-164h34l41 164 42-164h31" id="bo"/><path fill="#fff" d="M24-231v-30h32v30H24zM24 0v-190h32V0H24" id="bp"/><path fill="#fff" d="M106-169C34-169 62-67 57 0H25v-261h32l-1 103c12-21 28-36 61-36 89 0 53 116 60 194h-32v-121c2-32-8-49-39-48" id="bq"/><g id="j"><use transform="matrix(0.04938271604938272,0,0,0.04938271604938272,0,0)" xlink:href="#bo"/><use transform="matrix(0.04938271604938272,0,0,0.04938271604938272,12.790123456790125,0)" xlink:href="#bp"/><use transform="matrix(0.04938271604938272,0,0,0.04938271604938272,16.69135802469136,0)" xlink:href="#bm"/><use transform="matrix(0.04938271604938272,0,0,0.04938271604938272,21.629629629629633,0)" xlink:href="#bq"/></g><path fill="#fff" d="M24 0v-261h32V0H24" id="br"/><path fill="#fff" d="M100-194c62-1 85 37 85 99 1 63-27 99-86 99S16-35 15-95c0-66 28-99 85-99zM99-20c44 1 53-31 53-75 0-43-8-75-51-75s-53 32-53 75 10 74 51 75" id="bs"/><path fill="#fff" d="M177-190C167-65 218 103 67 71c-23-6-38-20-44-43l32-5c15 47 100 32 89-28v-30C133-14 115 1 83 1 29 1 15-40 15-95c0-56 16-97 71-98 29-1 48 16 59 35 1-10 0-23 2-32h30zM94-22c36 0 50-32 50-73 0-42-14-75-50-75-39 0-46 34-46 75s6 73 46 73" id="bt"/><g id="k"><use transform="matrix(0.04938271604938272,0,0,0.04938271604938272,0,0)" xlink:href="#br"/><use transform="matrix(0.04938271604938272,0,0,0.04938271604938272,3.901234567901235,0)" xlink:href="#bs"/><use transform="matrix(0.04938271604938272,0,0,0.04938271604938272,13.777777777777779,0)" xlink:href="#bt"/><use transform="matrix(0.04938271604938272,0,0,0.04938271604938272,23.654320987654323,0)" xlink:href="#bp"/><use transform="matrix(0.04938271604938272,0,0,0.04938271604938272,27.555555555555557,0)" xlink:href="#bl"/></g><path fill="#fff" d="M96-169c-40 0-48 33-48 73s9 75 48 75c24 0 41-14 43-38l32 2c-6 37-31 61-74 61-59 0-76-41-82-99-10-93 101-131 147-64 4 7 5 14 7 22l-32 3c-4-21-16-35-41-35" id="bu"/><g id="l"><use transform="matrix(0.04938271604938272,0,0,0.04938271604938272,0,0)" xlink:href="#bk"/><use transform="matrix(0.04938271604938272,0,0,0.04938271604938272,8.88888888888889,0)" xlink:href="#bu"/><use transform="matrix(0.04938271604938272,0,0,0.04938271604938272,17.77777777777778,0)" xlink:href="#bi"/><use transform="matrix(0.04938271604938272,0,0,0.04938271604938272,23.654320987654323,0)" xlink:href="#bj"/><use transform="matrix(0.04938271604938272,0,0,0.04938271604938272,33.53086419753087,0)" xlink:href="#bj"/><use transform="matrix(0.04938271604938272,0,0,0.04938271604938272,43.40740740740741,0)" xlink:href="#bl"/></g><path fill="#fff" d="M210-169c-67 3-38 105-44 169h-31v-121c0-29-5-50-35-48C34-165 62-65 56 0H25l-1-190h30c1 10-1 24 2 32 10-44 99-50 107 0 11-21 27-35 58-36 85-2 47 119 55 194h-31v-121c0-29-5-49-35-48" id="bv"/><g id="m"><use transform="matrix(0.04938271604938272,0,0,0.04938271604938272,0,0)" xlink:href="#bq"/><use transform="matrix(0.04938271604938272,0,0,0.04938271604938272,9.876543209876544,0)" xlink:href="#bs"/><use transform="matrix(0.04938271604938272,0,0,0.04938271604938272,19.75308641975309,0)" xlink:href="#bv"/><use transform="matrix(0.04938271604938272,0,0,0.04938271604938272,34.51851851851852,0)" xlink:href="#bj"/></g><path fill="#333" d="M169-182c-1-43-94-46-97-3 18 66 151 10 154 114 3 95-165 93-204 36-6-8-10-19-12-30l50-8c3 46 112 56 116 5-17-69-150-10-154-114-4-87 153-88 188-35 5 8 8 18 10 28" id="bw"/><path fill="#333" d="M136-208V0H84v-208H4v-40h212v40h-80" id="bx"/><path fill="#333" d="M238-95c0 69-44 99-111 99C63 4 22-25 22-93v-155h51v151c-1 38 19 59 55 60 90 1 49-130 58-211h52v153" id="by"/><path fill="#333" d="M24-248c120-7 223 5 221 122C244-46 201 0 124 0H24v-248zM76-40c74 7 117-18 117-86 0-67-45-88-117-82v168" id="bz"/><path fill="#333" d="M24 0v-248h195v40H76v63h132v40H76v65h150V0H24" id="bA"/><path fill="#333" d="M175 0L67-191c6 58 2 128 3 191H24v-248h59L193-55c-6-58-2-129-3-193h46V0h-61" id="bB"/><g id="n"><use transform="matrix(0.04320987654320988,0,0,0.04320987654320988,0,0)" xlink:href="#bw"/><use transform="matrix(0.04320987654320988,0,0,0.04320987654320988,10.370370370370372,0)" xlink:href="#bx"/><use transform="matrix(0.04320987654320988,0,0,0.04320987654320988,19.833333333333336,0)" xlink:href="#by"/><use transform="matrix(0.04320987654320988,0,0,0.04320987654320988,31.024691358024693,0)" xlink:href="#bz"/><use transform="matrix(0.04320987654320988,0,0,0.04320987654320988,42.21604938271606,0)" xlink:href="#bA"/><use transform="matrix(0.04320987654320988,0,0,0.04320987654320988,52.58641975308643,0)" xlink:href="#bB"/><use transform="matrix(0.04320987654320988,0,0,0.04320987654320988,63.77777777777779,0)" xlink:href="#bx"/></g><path fill="#333" d="M199 0l-22-63H83L61 0H9l90-248h61L250 0h-51zm-33-102l-36-108c-10 38-24 72-36 108h72" id="bC"/><path fill="#333" d="M67-125c0 53 21 87 73 88 37 1 54-22 65-47l45 17C233-25 199 4 140 4 58 4 20-42 15-125 8-235 124-281 211-232c18 10 29 29 36 50l-46 12c-8-25-30-41-62-41-52 0-71 34-72 86" id="bD"/><path fill="#333" d="M186 0v-106H76V0H24v-248h52v99h110v-99h50V0h-50" id="bE"/><path fill="#333" d="M240-174c0 40-23 61-54 70L253 0h-59l-57-94H76V0H24v-248c93 4 217-23 216 74zM76-134c48-2 112 12 112-38 0-48-66-32-112-35v73" id="bF"/><g id="o"><use transform="matrix(0.04320987654320988,0,0,0.04320987654320988,0,0)" xlink:href="#bx"/><use transform="matrix(0.04320987654320988,0,0,0.04320987654320988,9.462962962962964,0)" xlink:href="#bA"/><use transform="matrix(0.04320987654320988,0,0,0.04320987654320988,19.833333333333336,0)" xlink:href="#bC"/><use transform="matrix(0.04320987654320988,0,0,0.04320987654320988,31.024691358024693,0)" xlink:href="#bD"/><use transform="matrix(0.04320987654320988,0,0,0.04320987654320988,42.21604938271606,0)" xlink:href="#bE"/><use transform="matrix(0.04320987654320988,0,0,0.04320987654320988,53.407407407407426,0)" xlink:href="#bA"/><use transform="matrix(0.04320987654320988,0,0,0.04320987654320988,63.77777777777779,0)" xlink:href="#bF"/></g><path fill="#fff" d="M232-93c-1 65-40 97-104 97C67 4 28-28 28-90v-158h33c8 89-33 224 67 224 102 0 64-133 71-224h33v155" id="bG"/><g id="p"><use transform="matrix(0.04938271604938272,0,0,0.04938271604938272,0,0)" xlink:href="#bG"/><use transform="matrix(0.04938271604938272,0,0,0.04938271604938272,12.790123456790125,0)" xlink:href="#bk"/><use transform="matrix(0.04938271604938272,0,0,0.04938271604938272,21.679012345679013,0)" xlink:href="#bj"/><use transform="matrix(0.04938271604938272,0,0,0.04938271604938272,31.555555555555557,0)" xlink:href="#bi"/></g><path fill="#fff" d="M115-194c55 1 70 41 70 98S169 2 115 4C84 4 66-9 55-30l1 105H24l-1-265h31l2 30c10-21 28-34 59-34zm-8 174c40 0 45-34 45-75s-6-73-45-74c-42 0-51 32-51 76 0 43 10 73 51 73" id="bH"/><g id="q"><use transform="matrix(0.04938271604938272,0,0,0.04938271604938272,0,0)" xlink:href="#bs"/><use transform="matrix(0.04938271604938272,0,0,0.04938271604938272,9.876543209876544,0)" xlink:href="#bH"/><use transform="matrix(0.04938271604938272,0,0,0.04938271604938272,19.75308641975309,0)" xlink:href="#bj"/><use transform="matrix(0.04938271604938272,0,0,0.04938271604938272,29.629629629629633,0)" xlink:href="#bl"/><use transform="matrix(0.04938271604938272,0,0,0.04938271604938272,39.50617283950618,0)" xlink:href="#bk"/></g><g id="r"><use transform="matrix(0.04938271604938272,0,0,0.04938271604938272,0,0)" xlink:href="#bm"/><use transform="matrix(0.04938271604938272,0,0,0.04938271604938272,4.938271604938272,0)" xlink:href="#bq"/><use transform="matrix(0.04938271604938272,0,0,0.04938271604938272,14.814814814814817,0)" xlink:href="#bj"/></g><path fill="#fff" d="M141-36C126-15 110 5 73 4 37 3 15-17 15-53c-1-64 63-63 125-63 3-35-9-54-41-54-24 1-41 7-42 31l-33-3c5-37 33-52 76-52 45 0 72 20 72 64v82c-1 20 7 32 28 27v20c-31 9-61-2-59-35zM48-53c0 20 12 33 32 33 41-3 63-29 60-74-43 2-92-5-92 41" id="bI"/><g id="s"><use transform="matrix(0.04938271604938272,0,0,0.04938271604938272,0,0)" xlink:href="#bH"/><use transform="matrix(0.04938271604938272,0,0,0.04938271604938272,9.876543209876544,0)" xlink:href="#bi"/><use transform="matrix(0.04938271604938272,0,0,0.04938271604938272,15.753086419753087,0)" xlink:href="#bs"/><use transform="matrix(0.04938271604938272,0,0,0.04938271604938272,25.629629629629633,0)" xlink:href="#bt"/><use transform="matrix(0.04938271604938272,0,0,0.04938271604938272,35.50617283950618,0)" xlink:href="#bi"/><use transform="matrix(0.04938271604938272,0,0,0.04938271604938272,41.38271604938272,0)" xlink:href="#bI"/><use transform="matrix(0.04938271604938272,0,0,0.04938271604938272,51.25925925925927,0)" xlink:href="#bv"/></g><path fill="#333" d="M212-179c-10-28-35-45-73-45-59 0-87 40-87 99 0 60 29 101 89 101 43 0 62-24 78-52l27 14C228-24 195 4 139 4 59 4 22-46 18-125c-6-104 99-153 187-111 19 9 31 26 39 46" id="bJ"/><g id="t"><use transform="matrix(0.05,0,0,0.05,0,0)" xlink:href="#bJ"/><use transform="matrix(0.05,0,0,0.05,12.950000000000001,0)" xlink:href="#ba"/><use transform="matrix(0.05,0,0,0.05,22.950000000000003,0)" xlink:href="#bg"/><use transform="matrix(0.05,0,0,0.05,32.95,0)" xlink:href="#bg"/><use transform="matrix(0.05,0,0,0.05,42.95,0)" xlink:href="#aR"/><use transform="matrix(0.05,0,0,0.05,51.95,0)" xlink:href="#aS"/></g><path fill="#333" d="M206 0h-36l-40-164L89 0H53L-1-190h32L70-26l43-164h34l41 164 42-164h31" id="bK"/><g id="u"><use transform="matrix(0.05,0,0,0.05,0,0)" xlink:href="#bK"/><use transform="matrix(0.05,0,0,0.05,12.950000000000001,0)" xlink:href="#ba"/><use transform="matrix(0.05,0,0,0.05,22.950000000000003,0)" xlink:href="#aV"/><use transform="matrix(0.05,0,0,0.05,26.900000000000002,0)" xlink:href="#aW"/><use transform="matrix(0.05,0,0,0.05,35.900000000000006,0)" xlink:href="#ba"/></g><g id="v"><use transform="matrix(0.05,0,0,0.05,0,0)" xlink:href="#aR"/><use transform="matrix(0.05,0,0,0.05,9,0)" xlink:href="#aW"/><use transform="matrix(0.05,0,0,0.05,18,0)" xlink:href="#aT"/><use transform="matrix(0.05,0,0,0.05,23.95,0)" xlink:href="#aS"/><use transform="matrix(0.05,0,0,0.05,33.95,0)" xlink:href="#aS"/><use transform="matrix(0.05,0,0,0.05,43.95,0)" xlink:href="#bf"/></g><g id="w"><use transform="matrix(0.05,0,0,0.05,0,0)" xlink:href="#bb"/><use transform="matrix(0.05,0,0,0.05,9,0)" xlink:href="#bg"/><use transform="matrix(0.05,0,0,0.05,19,0)" xlink:href="#bd"/></g><g id="x"><use transform="matrix(0.05,0,0,0.05,0,0)" xlink:href="#bK"/><use transform="matrix(0.05,0,0,0.05,12.950000000000001,0)" xlink:href="#bc"/><use transform="matrix(0.05,0,0,0.05,22.950000000000003,0)" xlink:href="#bf"/><use transform="matrix(0.05,0,0,0.05,32.95,0)" xlink:href="#aZ"/></g><g id="y"><use transform="matrix(0.05,0,0,0.05,0,0)" xlink:href="#aZ"/><use transform="matrix(0.05,0,0,0.05,5,0)" xlink:href="#bg"/></g><path fill="#333" d="M108 0H70L1-190h34L89-25l56-165h34" id="bL"/><g id="z"><use transform="matrix(0.05,0,0,0.05,0,0)" xlink:href="#bL"/><use transform="matrix(0.05,0,0,0.05,9,0)" xlink:href="#aV"/><use transform="matrix(0.05,0,0,0.05,12.949999999999998,0)" xlink:href="#aR"/><use transform="matrix(0.05,0,0,0.05,21.95,0)" xlink:href="#aV"/><use transform="matrix(0.05,0,0,0.05,25.899999999999995,0)" xlink:href="#aZ"/></g><path fill="#282c33" d="M136-208V0H84v-208H4v-40h212v40h-80" id="bM"/><path fill="#282c33" d="M24 0v-248h195v40H76v63h132v40H76v65h150V0H24" id="bN"/><path fill="#282c33" d="M182 0l-62-99L58 0H3l86-130-79-118h55l55 88 55-88h55l-75 118L237 0h-55" id="bO"/><path fill="#282c33" d="M182-130c37 4 62 22 62 59C244 23 116-4 24 0v-248c84 5 203-23 205 63 0 31-19 50-47 55zM76-148c40-3 101 13 101-30 0-44-60-28-101-31v61zm0 110c48-3 116 14 116-37 0-48-69-32-116-35v72" id="bP"/><path fill="#282c33" d="M140-251c80 0 125 45 125 126S219 4 139 4C58 4 15-44 15-125s44-126 125-126zm-1 214c52 0 73-35 73-88 0-50-21-86-72-86-52 0-73 35-73 86s22 88 72 88" id="bQ"/><path fill="#282c33" d="M195 0l-88-114-31 24V0H24v-248h52v113l112-113h60L142-143 257 0h-62" id="bR"/><path fill="#282c33" d="M169-182c-1-43-94-46-97-3 18 66 151 10 154 114 3 95-165 93-204 36-6-8-10-19-12-30l50-8c3 46 112 56 116 5-17-69-150-10-154-114-4-87 153-88 188-35 5 8 8 18 10 28" id="bS"/><g id="A"><use transform="matrix(0.03703703703703704,0,0,0.03703703703703704,0,0)" xlink:href="#bM"/><use transform="matrix(0.03703703703703704,0,0,0.03703703703703704,8.111111111111112,0)" xlink:href="#bN"/><use transform="matrix(0.03703703703703704,0,0,0.03703703703703704,17,0)" xlink:href="#bO"/><use transform="matrix(0.03703703703703704,0,0,0.03703703703703704,25.88888888888889,0)" xlink:href="#bM"/><use transform="matrix(0.03703703703703704,0,0,0.03703703703703704,34,0)" xlink:href="#bP"/><use transform="matrix(0.03703703703703704,0,0,0.03703703703703704,43.592592592592595,0)" xlink:href="#bQ"/><use transform="matrix(0.03703703703703704,0,0,0.03703703703703704,53.96296296296297,0)" xlink:href="#bQ"/><use transform="matrix(0.03703703703703704,0,0,0.03703703703703704,64.33333333333334,0)" xlink:href="#bR"/><use transform="matrix(0.03703703703703704,0,0,0.03703703703703704,73.92592592592594,0)" xlink:href="#bS"/></g><path fill="#282c33" d="M238-95c0 69-44 99-111 99C63 4 22-25 22-93v-155h51v151c-1 38 19 59 55 60 90 1 49-130 58-211h52v153" id="bT"/><path fill="#282c33" d="M24-248c120-7 223 5 221 122C244-46 201 0 124 0H24v-248zM76-40c74 7 117-18 117-86 0-67-45-88-117-82v168" id="bU"/><path fill="#282c33" d="M146-102V0H94v-102L6-248h54l60 105 60-105h54" id="bV"/><g id="B"><use transform="matrix(0.03703703703703704,0,0,0.03703703703703704,0,0)" xlink:href="#bS"/><use transform="matrix(0.03703703703703704,0,0,0.03703703703703704,8.88888888888889,0)" xlink:href="#bM"/><use transform="matrix(0.03703703703703704,0,0,0.03703703703703704,17,0)" xlink:href="#bT"/><use transform="matrix(0.03703703703703704,0,0,0.03703703703703704,26.592592592592595,0)" xlink:href="#bU"/><use transform="matrix(0.03703703703703704,0,0,0.03703703703703704,36.18518518518519,0)" xlink:href="#bV"/></g><path fill="#282c33" d="M24-248c93 1 206-16 204 79-1 75-69 88-152 82V0H24v-248zm52 121c47 0 100 7 100-41 0-47-54-39-100-39v80" id="bW"/><path fill="#282c33" d="M24 0v-248h52v208h133V0H24" id="bX"/><path fill="#282c33" d="M199 0l-22-63H83L61 0H9l90-248h61L250 0h-51zm-33-102l-36-108c-10 38-24 72-36 108h72" id="bY"/><path fill="#282c33" d="M175 0L67-191c6 58 2 128 3 191H24v-248h59L193-55c-6-58-2-129-3-193h46V0h-61" id="bZ"/><path fill="#282c33" d="M240-174c0 40-23 61-54 70L253 0h-59l-57-94H76V0H24v-248c93 4 217-23 216 74zM76-134c48-2 112 12 112-38 0-48-66-32-112-35v73" id="ca"/><g id="C"><use transform="matrix(0.03703703703703704,0,0,0.03703703703703704,0,0)" xlink:href="#bW"/><use transform="matrix(0.03703703703703704,0,0,0.03703703703703704,8.88888888888889,0)" xlink:href="#bX"/><use transform="matrix(0.03703703703703704,0,0,0.03703703703703704,17,0)" xlink:href="#bY"/><use transform="matrix(0.03703703703703704,0,0,0.03703703703703704,26.592592592592595,0)" xlink:href="#bZ"/><use transform="matrix(0.03703703703703704,0,0,0.03703703703703704,36.18518518518519,0)" xlink:href="#bZ"/><use transform="matrix(0.03703703703703704,0,0,0.03703703703703704,45.777777777777786,0)" xlink:href="#bN"/><use transform="matrix(0.03703703703703704,0,0,0.03703703703703704,54.66666666666667,0)" xlink:href="#ca"/></g><path fill="#282c33" d="M67-125c0 53 21 87 73 88 37 1 54-22 65-47l45 17C233-25 199 4 140 4 58 4 20-42 15-125 8-235 124-281 211-232c18 10 29 29 36 50l-46 12c-8-25-30-41-62-41-52 0-71 34-72 86" id="cb"/><path fill="#282c33" d="M230 0l2-204L168 0h-37L68-204 70 0H24v-248h70l56 185 57-185h69V0h-46" id="cc"/><path fill="#282c33" d="M24 0v-248h52V0H24" id="cd"/><path fill="#282c33" d="M67-125c0 54 23 88 75 88 28 0 53-7 68-21v-34h-60v-39h108v91C232-14 192 4 140 4 58 4 20-42 15-125 8-236 126-280 215-234c19 10 29 26 37 47l-47 15c-11-23-29-39-63-39-53 1-75 33-75 86" id="ce"/><g id="D"><use transform="matrix(0.03703703703703704,0,0,0.03703703703703704,0,0)" xlink:href="#bT"/><use transform="matrix(0.03703703703703704,0,0,0.03703703703703704,9.592592592592593,0)" xlink:href="#bW"/><use transform="matrix(0.03703703703703704,0,0,0.03703703703703704,18.48148148148148,0)" xlink:href="#cb"/><use transform="matrix(0.03703703703703704,0,0,0.03703703703703704,28.074074074074076,0)" xlink:href="#bQ"/><use transform="matrix(0.03703703703703704,0,0,0.03703703703703704,38.44444444444445,0)" xlink:href="#cc"/><use transform="matrix(0.03703703703703704,0,0,0.03703703703703704,49.518518518518526,0)" xlink:href="#cd"/><use transform="matrix(0.03703703703703704,0,0,0.03703703703703704,53.22222222222223,0)" xlink:href="#bZ"/><use transform="matrix(0.03703703703703704,0,0,0.03703703703703704,62.814814814814824,0)" xlink:href="#ce"/></g><g id="E"><use transform="matrix(0.03703703703703704,0,0,0.03703703703703704,0,0)" xlink:href="#bY"/><use transform="matrix(0.03703703703703704,0,0,0.03703703703703704,9.592592592592593,0)" xlink:href="#bS"/><use transform="matrix(0.03703703703703704,0,0,0.03703703703703704,18.48148148148148,0)" xlink:href="#bS"/><use transform="matrix(0.03703703703703704,0,0,0.03703703703703704,27.37037037037037,0)" xlink:href="#bN"/><use transform="matrix(0.03703703703703704,0,0,0.03703703703703704,36.25925925925926,0)" xlink:href="#bS"/><use transform="matrix(0.03703703703703704,0,0,0.03703703703703704,45.14814814814815,0)" xlink:href="#bS"/><use transform="matrix(0.03703703703703704,0,0,0.03703703703703704,54.03703703703704,0)" xlink:href="#cc"/><use transform="matrix(0.03703703703703704,0,0,0.03703703703703704,65.11111111111111,0)" xlink:href="#bN"/><use transform="matrix(0.03703703703703704,0,0,0.03703703703703704,74,0)" xlink:href="#bZ"/><use transform="matrix(0.03703703703703704,0,0,0.03703703703703704,83.59259259259261,0)" xlink:href="#bM"/><use transform="matrix(0.03703703703703704,0,0,0.03703703703703704,91.70370370370371,0)" xlink:href="#bS"/></g><path fill="#fff" d="M30-248c118-7 216 8 213 122C240-48 200 0 122 0H30v-248zM63-27c89 8 146-16 146-99s-60-101-146-95v194" id="cf"/><path fill="#fff" d="M179-190L93 31C79 59 56 82 12 73V49c39 6 53-20 64-50L1-190h34L92-34l54-156h33" id="cg"/><g id="F"><use transform="matrix(0.05,0,0,0.05,0,0)" xlink:href="#cf"/><use transform="matrix(0.05,0,0,0.05,12.950000000000001,0)" xlink:href="#bp"/><use transform="matrix(0.05,0,0,0.05,16.900000000000002,0)" xlink:href="#bk"/><use transform="matrix(0.05,0,0,0.05,25.900000000000002,0)" xlink:href="#bH"/><use transform="matrix(0.05,0,0,0.05,35.900000000000006,0)" xlink:href="#br"/><use transform="matrix(0.05,0,0,0.05,39.85000000000001,0)" xlink:href="#bI"/><use transform="matrix(0.05,0,0,0.05,49.85000000000001,0)" xlink:href="#cg"/></g><g id="G"><use transform="matrix(0.05,0,0,0.05,0,0)" xlink:href="#bl"/><use transform="matrix(0.05,0,0,0.05,10,0)" xlink:href="#bs"/><use transform="matrix(0.05,0,0,0.05,20,0)" xlink:href="#bm"/><use transform="matrix(0.05,0,0,0.05,25,0)" xlink:href="#bp"/><use transform="matrix(0.05,0,0,0.05,28.950000000000003,0)" xlink:href="#bu"/><use transform="matrix(0.05,0,0,0.05,37.95,0)" xlink:href="#bj"/></g><g id="H"><use transform="matrix(0.05,0,0,0.05,0,0)" xlink:href="#bk"/><use transform="matrix(0.05,0,0,0.05,9,0)" xlink:href="#bu"/><use transform="matrix(0.05,0,0,0.05,18,0)" xlink:href="#bi"/><use transform="matrix(0.05,0,0,0.05,23.95,0)" xlink:href="#bj"/><use transform="matrix(0.05,0,0,0.05,33.95,0)" xlink:href="#bj"/><use transform="matrix(0.05,0,0,0.05,43.95,0)" xlink:href="#bl"/></g><g id="I"><use transform="matrix(0.03703703703703704,0,0,0.03703703703703704,0,0)" xlink:href="#bZ"/><use transform="matrix(0.03703703703703704,0,0,0.03703703703703704,9.592592592592593,0)" xlink:href="#bQ"/><use transform="matrix(0.03703703703703704,0,0,0.03703703703703704,19.962962962962965,0)" xlink:href="#bM"/><use transform="matrix(0.03703703703703704,0,0,0.03703703703703704,28.074074074074076,0)" xlink:href="#cd"/><use transform="matrix(0.03703703703703704,0,0,0.03703703703703704,31.77777777777778,0)" xlink:href="#cb"/><use transform="matrix(0.03703703703703704,0,0,0.03703703703703704,41.370370370370374,0)" xlink:href="#bN"/><use transform="matrix(0.03703703703703704,0,0,0.03703703703703704,50.25925925925927,0)" xlink:href="#bS"/></g><path fill="#fff" d="M185-189c-5-48-123-54-124 2 14 75 158 14 163 119 3 78-121 87-175 55-17-10-28-26-33-46l33-7c5 56 141 63 141-1 0-78-155-14-162-118-5-82 145-84 179-34 5 7 8 16 11 25" id="ch"/><g id="J"><use transform="matrix(0.05,0,0,0.05,0,0)" xlink:href="#ch"/><use transform="matrix(0.05,0,0,0.05,12,0)" xlink:href="#bq"/><use transform="matrix(0.05,0,0,0.05,22,0)" xlink:href="#bs"/><use transform="matrix(0.05,0,0,0.05,32,0)" xlink:href="#bo"/></g><g id="K"><use transform="matrix(0.05,0,0,0.05,0,0)" xlink:href="#bI"/><use transform="matrix(0.05,0,0,0.05,10,0)" xlink:href="#br"/><use transform="matrix(0.05,0,0,0.05,13.949999999999998,0)" xlink:href="#br"/></g><path fill="#fff" d="M141 0L90-78 38 0H4l68-98-65-92h35l48 74 47-74h35l-64 92 68 98h-35" id="ci"/><path fill="#fff" d="M115-194c53 0 69 39 70 98 0 66-23 100-70 100C84 3 66-7 56-30L54 0H23l1-261h32v101c10-23 28-34 59-34zm-8 174c40 0 45-34 45-75 0-40-5-75-45-74-42 0-51 32-51 76 0 43 10 73 51 73" id="cj"/><path fill="#fff" d="M143 0L79-87 56-68V0H24v-261h32v163l83-92h37l-77 82L181 0h-38" id="ck"/><g id="L"><use transform="matrix(0.05,0,0,0.05,0,0)" xlink:href="#bm"/><use transform="matrix(0.05,0,0,0.05,5,0)" xlink:href="#bj"/><use transform="matrix(0.05,0,0,0.05,15,0)" xlink:href="#ci"/><use transform="matrix(0.05,0,0,0.05,24,0)" xlink:href="#bm"/><use transform="matrix(0.05,0,0,0.05,29,0)" xlink:href="#cj"/><use transform="matrix(0.05,0,0,0.05,39,0)" xlink:href="#bs"/><use transform="matrix(0.05,0,0,0.05,49,0)" xlink:href="#bs"/><use transform="matrix(0.05,0,0,0.05,59,0)" xlink:href="#ck"/><use transform="matrix(0.05,0,0,0.05,68,0)" xlink:href="#bk"/></g><g id="M"><use transform="matrix(0.05,0,0,0.05,0,0)" xlink:href="#bs"/><use transform="matrix(0.05,0,0,0.05,10,0)" xlink:href="#bl"/></g><g id="N"><use transform="matrix(0.05,0,0,0.05,0,0)" xlink:href="#bn"/><use transform="matrix(0.05,0,0,0.05,10,0)" xlink:href="#bI"/><use transform="matrix(0.05,0,0,0.05,20,0)" xlink:href="#bm"/><use transform="matrix(0.05,0,0,0.05,25,0)" xlink:href="#bI"/><use transform="matrix(0.05,0,0,0.05,35,0)" xlink:href="#cj"/><use transform="matrix(0.05,0,0,0.05,45,0)" xlink:href="#bI"/><use transform="matrix(0.05,0,0,0.05,55,0)" xlink:href="#bk"/><use transform="matrix(0.05,0,0,0.05,64,0)" xlink:href="#bj"/></g><g id="O"><use transform="matrix(0.05,0,0,0.05,0,0)" xlink:href="#bh"/><use transform="matrix(0.05,0,0,0.05,12,0)" xlink:href="#bi"/><use transform="matrix(0.05,0,0,0.05,17.95,0)" xlink:href="#bj"/><use transform="matrix(0.05,0,0,0.05,27.950000000000003,0)" xlink:href="#bk"/><use transform="matrix(0.05,0,0,0.05,36.95,0)" xlink:href="#bj"/><use transform="matrix(0.05,0,0,0.05,46.95,0)" xlink:href="#bl"/><use transform="matrix(0.05,0,0,0.05,56.95,0)" xlink:href="#bm"/></g><path fill="#fff" d="M84 4C-5 8 30-112 23-190h32v120c0 31 7 50 39 49 72-2 45-101 50-169h31l1 190h-30c-1-10 1-25-2-33-11 22-28 36-60 37" id="cl"/><g id="P"><use transform="matrix(0.05,0,0,0.05,0,0)" xlink:href="#cl"/><use transform="matrix(0.05,0,0,0.05,10,0)" xlink:href="#bk"/><use transform="matrix(0.05,0,0,0.05,19,0)" xlink:href="#bj"/><use transform="matrix(0.05,0,0,0.05,29,0)" xlink:href="#bi"/></g><g id="Q"><use transform="matrix(0.05,0,0,0.05,0,0)" xlink:href="#bo"/><use transform="matrix(0.05,0,0,0.05,12.950000000000001,0)" xlink:href="#bp"/><use transform="matrix(0.05,0,0,0.05,16.900000000000002,0)" xlink:href="#bm"/><use transform="matrix(0.05,0,0,0.05,21.900000000000002,0)" xlink:href="#bq"/></g><use transform="matrix(0.05,0,0,0.05,0,0)" xlink:href="#bI" id="R"/><g id="S"><use transform="matrix(0.05,0,0,0.05,0,0)" xlink:href="#bu"/><use transform="matrix(0.05,0,0,0.05,9,0)" xlink:href="#bI"/><use transform="matrix(0.05,0,0,0.05,19,0)" xlink:href="#br"/><use transform="matrix(0.05,0,0,0.05,22.95,0)" xlink:href="#bj"/><use transform="matrix(0.05,0,0,0.05,32.95,0)" xlink:href="#bl"/><use transform="matrix(0.05,0,0,0.05,42.95,0)" xlink:href="#bn"/><use transform="matrix(0.05,0,0,0.05,52.95,0)" xlink:href="#bj"/><use transform="matrix(0.05,0,0,0.05,62.95,0)" xlink:href="#bi"/></g><g id="T"><use transform="matrix(0.05,0,0,0.05,0,0)" xlink:href="#bo"/><use transform="matrix(0.05,0,0,0.05,12.950000000000001,0)" xlink:href="#bq"/><use transform="matrix(0.05,0,0,0.05,22.950000000000003,0)" xlink:href="#bj"/><use transform="matrix(0.05,0,0,0.05,32.95,0)" xlink:href="#bi"/><use transform="matrix(0.05,0,0,0.05,38.900000000000006,0)" xlink:href="#bj"/></g><g id="U"><use transform="matrix(0.05,0,0,0.05,0,0)" xlink:href="#bm"/><use transform="matrix(0.05,0,0,0.05,5,0)" xlink:href="#bq"/><use transform="matrix(0.05,0,0,0.05,15,0)" xlink:href="#bj"/><use transform="matrix(0.05,0,0,0.05,25,0)" xlink:href="#cg"/></g><g id="V"><use transform="matrix(0.05,0,0,0.05,0,0)" xlink:href="#bu"/><use transform="matrix(0.05,0,0,0.05,9,0)" xlink:href="#bI"/><use transform="matrix(0.05,0,0,0.05,19,0)" xlink:href="#bl"/></g><g id="W"><use transform="matrix(0.05,0,0,0.05,0,0)" xlink:href="#bv"/><use transform="matrix(0.05,0,0,0.05,14.950000000000001,0)" xlink:href="#bI"/><use transform="matrix(0.05,0,0,0.05,24.950000000000003,0)" xlink:href="#ck"/><use transform="matrix(0.05,0,0,0.05,33.95,0)" xlink:href="#bj"/></g><g id="X"><use transform="matrix(0.05,0,0,0.05,0,0)" xlink:href="#bm"/><use transform="matrix(0.05,0,0,0.05,5,0)" xlink:href="#bq"/><use transform="matrix(0.05,0,0,0.05,15,0)" xlink:href="#bj"/><use transform="matrix(0.05,0,0,0.05,25,0)" xlink:href="#bp"/><use transform="matrix(0.05,0,0,0.05,28.950000000000003,0)" xlink:href="#bi"/></g><g id="Y"><use transform="matrix(0.05,0,0,0.05,0,0)" xlink:href="#bs"/><use transform="matrix(0.05,0,0,0.05,10,0)" xlink:href="#bo"/><use transform="matrix(0.05,0,0,0.05,22.950000000000003,0)" xlink:href="#bl"/></g><g id="Z"><use transform="matrix(0.05,0,0,0.05,0,0)" xlink:href="#bk"/><use transform="matrix(0.05,0,0,0.05,9,0)" xlink:href="#bm"/><use transform="matrix(0.05,0,0,0.05,14,0)" xlink:href="#cl"/><use transform="matrix(0.05,0,0,0.05,24,0)" xlink:href="#bn"/><use transform="matrix(0.05,0,0,0.05,34,0)" xlink:href="#cg"/></g><g id="aa"><use transform="matrix(0.05,0,0,0.05,0,0)" xlink:href="#bm"/><use transform="matrix(0.05,0,0,0.05,5,0)" xlink:href="#bp"/><use transform="matrix(0.05,0,0,0.05,8.95,0)" xlink:href="#bv"/><use transform="matrix(0.05,0,0,0.05,23.9,0)" xlink:href="#bj"/></g><g id="ab"><use transform="matrix(0.05,0,0,0.05,0,0)" xlink:href="#bm"/><use transform="matrix(0.05,0,0,0.05,5,0)" xlink:href="#bI"/><use transform="matrix(0.05,0,0,0.05,15,0)" xlink:href="#cj"/><use transform="matrix(0.05,0,0,0.05,25,0)" xlink:href="#br"/><use transform="matrix(0.05,0,0,0.05,28.950000000000003,0)" xlink:href="#bj"/></g><g id="ac"><use transform="matrix(0.05,0,0,0.05,0,0)" xlink:href="#cl"/><use transform="matrix(0.05,0,0,0.05,10,0)" xlink:href="#bH"/><use transform="matrix(0.05,0,0,0.05,20,0)" xlink:href="#bu"/><use transform="matrix(0.05,0,0,0.05,29,0)" xlink:href="#bs"/><use transform="matrix(0.05,0,0,0.05,39,0)" xlink:href="#bv"/><use transform="matrix(0.05,0,0,0.05,53.95,0)" xlink:href="#bv"/><use transform="matrix(0.05,0,0,0.05,68.9,0)" xlink:href="#bp"/><use transform="matrix(0.05,0,0,0.05,72.85000000000001,0)" xlink:href="#bl"/><use transform="matrix(0.05,0,0,0.05,82.85000000000001,0)" xlink:href="#bt"/></g><g id="ad"><use transform="matrix(0.05,0,0,0.05,0,0)" xlink:href="#bI"/><use transform="matrix(0.05,0,0,0.05,10,0)" xlink:href="#bk"/><use transform="matrix(0.05,0,0,0.05,19,0)" xlink:href="#bk"/><use transform="matrix(0.05,0,0,0.05,28,0)" xlink:href="#bj"/><use transform="matrix(0.05,0,0,0.05,38,0)" xlink:href="#bk"/><use transform="matrix(0.05,0,0,0.05,47,0)" xlink:href="#bk"/><use transform="matrix(0.05,0,0,0.05,56,0)" xlink:href="#bv"/><use transform="matrix(0.05,0,0,0.05,70.95,0)" xlink:href="#bj"/><use transform="matrix(0.05,0,0,0.05,80.95,0)" xlink:href="#bl"/><use transform="matrix(0.05,0,0,0.05,90.95,0)" xlink:href="#bm"/><use transform="matrix(0.05,0,0,0.05,95.95,0)" xlink:href="#bk"/></g><path fill="#333" d="M33 0v-248h34V0H33" id="cm"/><g id="ae"><use transform="matrix(0.05,0,0,0.05,0,0)" xlink:href="#cm"/><use transform="matrix(0.05,0,0,0.05,5,0)" xlink:href="#bf"/><use transform="matrix(0.05,0,0,0.05,15,0)" xlink:href="#aU"/><use transform="matrix(0.05,0,0,0.05,25,0)" xlink:href="#bd"/><use transform="matrix(0.05,0,0,0.05,35,0)" xlink:href="#aZ"/></g><path fill="#333" d="M210-169c-67 3-38 105-44 169h-31v-121c0-29-5-50-35-48C34-165 62-65 56 0H25l-1-190h30c1 10-1 24 2 32 10-44 99-50 107 0 11-21 27-35 58-36 85-2 47 119 55 194h-31v-121c0-29-5-49-35-48" id="cn"/><g id="af"><use transform="matrix(0.05,0,0,0.05,0,0)" xlink:href="#bd"/><use transform="matrix(0.05,0,0,0.05,10,0)" xlink:href="#aR"/><use transform="matrix(0.05,0,0,0.05,19,0)" xlink:href="#aS"/><use transform="matrix(0.05,0,0,0.05,29,0)" xlink:href="#aT"/><use transform="matrix(0.05,0,0,0.05,34.95,0)" xlink:href="#bf"/><use transform="matrix(0.05,0,0,0.05,44.95,0)" xlink:href="#bc"/><use transform="matrix(0.05,0,0,0.05,54.95,0)" xlink:href="#cn"/><use transform="matrix(0.05,0,0,0.05,69.9,0)" xlink:href="#aS"/></g><g id="ag"><use transform="matrix(0.05,0,0,0.05,0,0)" xlink:href="#bc"/><use transform="matrix(0.05,0,0,0.05,10,0)" xlink:href="#bf"/><use transform="matrix(0.05,0,0,0.05,20,0)" xlink:href="#be"/></g><g id="ah"><use transform="matrix(0.05,0,0,0.05,0,0)" xlink:href="#aU"/><use transform="matrix(0.05,0,0,0.05,10,0)" xlink:href="#bc"/><use transform="matrix(0.05,0,0,0.05,20,0)" xlink:href="#aR"/><use transform="matrix(0.05,0,0,0.05,29,0)" xlink:href="#aR"/><use transform="matrix(0.05,0,0,0.05,38,0)" xlink:href="#bK"/><use transform="matrix(0.05,0,0,0.05,50.95,0)" xlink:href="#bg"/><use transform="matrix(0.05,0,0,0.05,60.95,0)" xlink:href="#aT"/><use transform="matrix(0.05,0,0,0.05,66.9,0)" xlink:href="#be"/></g><g id="ai"><use transform="matrix(0.05,0,0,0.05,0,0)" xlink:href="#cm"/><use transform="matrix(0.05,0,0,0.05,5,0)" xlink:href="#aR"/></g><path fill="#333" d="M0 4l72-265h28L28 4H0" id="co"/><g id="aj"><use transform="matrix(0.05,0,0,0.05,0,0)" xlink:href="#bd"/><use transform="matrix(0.05,0,0,0.05,10,0)" xlink:href="#aR"/><use transform="matrix(0.05,0,0,0.05,19,0)" xlink:href="#aS"/><use transform="matrix(0.05,0,0,0.05,29,0)" xlink:href="#aT"/><use transform="matrix(0.05,0,0,0.05,34.95,0)" xlink:href="#bf"/><use transform="matrix(0.05,0,0,0.05,44.95,0)" xlink:href="#bc"/><use transform="matrix(0.05,0,0,0.05,54.95,0)" xlink:href="#cn"/><use transform="matrix(0.05,0,0,0.05,69.9,0)" xlink:href="#aS"/><use transform="matrix(0.05,0,0,0.05,79.9,0)" xlink:href="#co"/><use transform="matrix(0.05,0,0,0.05,84.9,0)" xlink:href="#aU"/><use transform="matrix(0.05,0,0,0.05,94.9,0)" xlink:href="#bc"/><use transform="matrix(0.05,0,0,0.05,104.9,0)" xlink:href="#aR"/><use transform="matrix(0.05,0,0,0.05,113.9,0)" xlink:href="#aR"/><use transform="matrix(0.05,0,0,0.05,122.9,0)" xlink:href="#bK"/><use transform="matrix(0.05,0,0,0.05,135.85,0)" xlink:href="#bg"/><use transform="matrix(0.05,0,0,0.05,145.85,0)" xlink:href="#aT"/><use transform="matrix(0.05,0,0,0.05,151.79999999999998,0)" xlink:href="#be"/></g><path fill="#333" d="M103-251c84 0 111 97 45 133-19 10-37 24-39 52H78c0-63 77-55 77-114 0-30-21-42-52-43-32 0-53 17-56 46l-32-2c7-45 34-72 88-72zM77 0v-35h34V0H77" id="cp"/><g id="ak"><use transform="matrix(0.05,0,0,0.05,0,0)" xlink:href="#aW"/><use transform="matrix(0.05,0,0,0.05,9,0)" xlink:href="#bg"/><use transform="matrix(0.05,0,0,0.05,19,0)" xlink:href="#aT"/><use transform="matrix(0.05,0,0,0.05,24.95,0)" xlink:href="#aT"/><use transform="matrix(0.05,0,0,0.05,30.899999999999995,0)" xlink:href="#aS"/><use transform="matrix(0.05,0,0,0.05,40.9,0)" xlink:href="#aW"/><use transform="matrix(0.05,0,0,0.05,49.9,0)" xlink:href="#aZ"/><use transform="matrix(0.05,0,0,0.05,54.900000000000006,0)" xlink:href="#cp"/></g><g id="al"><use transform="matrix(0.03703703703703704,0,0,0.03703703703703704,0,0)" xlink:href="#bZ"/><use transform="matrix(0.03703703703703704,0,0,0.03703703703703704,9.592592592592593,0)" xlink:href="#bQ"/></g><g id="am"><use transform="matrix(0.05,0,0,0.05,0,0)" xlink:href="#br"/><use transform="matrix(0.05,0,0,0.05,3.95,0)" xlink:href="#bs"/><use transform="matrix(0.05,0,0,0.05,13.949999999999998,0)" xlink:href="#bt"/><use transform="matrix(0.05,0,0,0.05,23.95,0)" xlink:href="#bp"/><use transform="matrix(0.05,0,0,0.05,27.899999999999995,0)" xlink:href="#bl"/></g><g id="an"><use transform="matrix(0.05,0,0,0.05,0,0)" xlink:href="#bj"/><use transform="matrix(0.05,0,0,0.05,10,0)" xlink:href="#bi"/><use transform="matrix(0.05,0,0,0.05,15.949999999999998,0)" xlink:href="#bi"/><use transform="matrix(0.05,0,0,0.05,21.9,0)" xlink:href="#bs"/><use transform="matrix(0.05,0,0,0.05,31.899999999999995,0)" xlink:href="#bi"/></g><g id="ao"><use transform="matrix(0.03703703703703704,0,0,0.03703703703703704,0,0)" xlink:href="#bV"/><use transform="matrix(0.03703703703703704,0,0,0.03703703703703704,8.88888888888889,0)" xlink:href="#bN"/><use transform="matrix(0.03703703703703704,0,0,0.03703703703703704,17.77777777777778,0)" xlink:href="#bS"/></g><g id="ap"><use transform="matrix(0.05,0,0,0.05,0,0)" xlink:href="#bm"/><use transform="matrix(0.05,0,0,0.05,5,0)" xlink:href="#bj"/><use transform="matrix(0.05,0,0,0.05,15,0)" xlink:href="#bI"/><use transform="matrix(0.05,0,0,0.05,25,0)" xlink:href="#bu"/><use transform="matrix(0.05,0,0,0.05,34,0)" xlink:href="#bq"/><use transform="matrix(0.05,0,0,0.05,44,0)" xlink:href="#bj"/><use transform="matrix(0.05,0,0,0.05,54,0)" xlink:href="#bi"/></g><g id="aq"><use transform="matrix(0.05,0,0,0.05,0,0)" xlink:href="#bq"/><use transform="matrix(0.05,0,0,0.05,10,0)" xlink:href="#bs"/><use transform="matrix(0.05,0,0,0.05,20,0)" xlink:href="#bv"/><use transform="matrix(0.05,0,0,0.05,34.95,0)" xlink:href="#bj"/></g><path fill="#b2b2b2" d="M59-47c-2 24 18 29 38 22v24C64 9 27 4 27-40v-127H5v-23h24l9-43h21v43h35v23H59v120" id="cq"/><use transform="matrix(0.03703703703703704,0,0,0.03703703703703704,0,0)" xlink:href="#cq" id="ar"/><path fill="#333" d="M127-220V0H93v-220H8v-28h204v28h-85" id="cr"/><g id="as"><use transform="matrix(0.05,0,0,0.05,0,0)" xlink:href="#cr"/><use transform="matrix(0.05,0,0,0.05,8.950000000000001,0)" xlink:href="#aS"/><use transform="matrix(0.05,0,0,0.05,18.950000000000003,0)" xlink:href="#bc"/><use transform="matrix(0.05,0,0,0.05,28.950000000000003,0)" xlink:href="#aW"/><use transform="matrix(0.05,0,0,0.05,37.95,0)" xlink:href="#ba"/><use transform="matrix(0.05,0,0,0.05,47.95,0)" xlink:href="#aS"/><use transform="matrix(0.05,0,0,0.05,57.95,0)" xlink:href="#aT"/></g><g id="at"><use transform="matrix(0.05,0,0,0.05,0,0)" xlink:href="#aW"/><use transform="matrix(0.05,0,0,0.05,9,0)" xlink:href="#bc"/><use transform="matrix(0.05,0,0,0.05,19,0)" xlink:href="#bf"/></g><g id="au"><use transform="matrix(0.05,0,0,0.05,0,0)" xlink:href="#aV"/><use transform="matrix(0.05,0,0,0.05,3.95,0)" xlink:href="#bf"/><use transform="matrix(0.05,0,0,0.05,13.949999999999998,0)" xlink:href="#aU"/><use transform="matrix(0.05,0,0,0.05,23.95,0)" xlink:href="#bd"/><use transform="matrix(0.05,0,0,0.05,33.95,0)" xlink:href="#aZ"/></g><g id="av"><use transform="matrix(0.05,0,0,0.05,0,0)" xlink:href="#aU"/><use transform="matrix(0.05,0,0,0.05,10,0)" xlink:href="#bg"/><use transform="matrix(0.05,0,0,0.05,20,0)" xlink:href="#aR"/><use transform="matrix(0.05,0,0,0.05,29,0)" xlink:href="#aZ"/></g><g id="aw"><use transform="matrix(0.05,0,0,0.05,0,0)" xlink:href="#bg"/><use transform="matrix(0.05,0,0,0.05,10,0)" xlink:href="#bK"/><use transform="matrix(0.05,0,0,0.05,22.950000000000003,0)" xlink:href="#bf"/></g><g id="ax"><use transform="matrix(0.05,0,0,0.05,0,0)" xlink:href="#bf"/><use transform="matrix(0.05,0,0,0.05,10,0)" xlink:href="#bg"/><use transform="matrix(0.05,0,0,0.05,20,0)" xlink:href="#aZ"/><use transform="matrix(0.05,0,0,0.05,25,0)" xlink:href="#aV"/><use transform="matrix(0.05,0,0,0.05,28.950000000000003,0)" xlink:href="#aW"/><use transform="matrix(0.05,0,0,0.05,37.95,0)" xlink:href="#aS"/><use transform="matrix(0.05,0,0,0.05,47.95,0)" xlink:href="#aR"/></g><g id="ay"><use transform="matrix(0.05,0,0,0.05,0,0)" xlink:href="#cf"/><use transform="matrix(0.05,0,0,0.05,12.950000000000001,0)" xlink:href="#bp"/><use transform="matrix(0.05,0,0,0.05,16.900000000000002,0)" xlink:href="#bk"/><use transform="matrix(0.05,0,0,0.05,25.900000000000002,0)" xlink:href="#bH"/><use transform="matrix(0.05,0,0,0.05,35.900000000000006,0)" xlink:href="#br"/><use transform="matrix(0.05,0,0,0.05,39.85000000000001,0)" xlink:href="#bI"/><use transform="matrix(0.05,0,0,0.05,49.85000000000001,0)" xlink:href="#cg"/></g><g id="az"><use transform="matrix(0.05,0,0,0.05,0,0)" xlink:href="#bI"/><use transform="matrix(0.05,0,0,0.05,10,0)" xlink:href="#bk"/><use transform="matrix(0.05,0,0,0.05,19,0)" xlink:href="#bk"/><use transform="matrix(0.05,0,0,0.05,28,0)" xlink:href="#bj"/><use transform="matrix(0.05,0,0,0.05,38,0)" xlink:href="#bk"/><use transform="matrix(0.05,0,0,0.05,47,0)" xlink:href="#bk"/><use transform="matrix(0.05,0,0,0.05,56,0)" xlink:href="#bv"/><use transform="matrix(0.05,0,0,0.05,70.95,0)" xlink:href="#bj"/><use transform="matrix(0.05,0,0,0.05,80.95,0)" xlink:href="#bl"/><use transform="matrix(0.05,0,0,0.05,90.95,0)" xlink:href="#bm"/></g><g id="aA"><use transform="matrix(0.05,0,0,0.05,0,0)" xlink:href="#aW"/><use transform="matrix(0.05,0,0,0.05,9,0)" xlink:href="#bc"/><use transform="matrix(0.05,0,0,0.05,19,0)" xlink:href="#bf"/></g><g id="aB"><use transform="matrix(0.05,0,0,0.05,0,0)" xlink:href="#aR"/><use transform="matrix(0.05,0,0,0.05,9,0)" xlink:href="#aS"/><use transform="matrix(0.05,0,0,0.05,19,0)" xlink:href="#aZ"/></g><g id="aC"><use transform="matrix(0.05,0,0,0.05,0,0)" xlink:href="#be"/><use transform="matrix(0.05,0,0,0.05,10,0)" xlink:href="#bc"/><use transform="matrix(0.05,0,0,0.05,20,0)" xlink:href="#aZ"/><use transform="matrix(0.05,0,0,0.05,25,0)" xlink:href="#aS"/><use transform="matrix(0.05,0,0,0.05,35,0)" xlink:href="#aR"/></g><g id="aD"><use transform="matrix(0.05,0,0,0.05,0,0)" xlink:href="#aY"/><use transform="matrix(0.05,0,0,0.05,5,0)" xlink:href="#bg"/><use transform="matrix(0.05,0,0,0.05,15,0)" xlink:href="#aT"/></g><g id="aE"><use transform="matrix(0.05,0,0,0.05,0,0)" xlink:href="#bc"/><use transform="matrix(0.05,0,0,0.05,10,0)" xlink:href="#aR"/><use transform="matrix(0.05,0,0,0.05,19,0)" xlink:href="#aR"/><use transform="matrix(0.05,0,0,0.05,28,0)" xlink:href="#aS"/><use transform="matrix(0.05,0,0,0.05,38,0)" xlink:href="#aR"/><use transform="matrix(0.05,0,0,0.05,47,0)" xlink:href="#aR"/><use transform="matrix(0.05,0,0,0.05,56,0)" xlink:href="#cn"/><use transform="matrix(0.05,0,0,0.05,70.95,0)" xlink:href="#aS"/><use transform="matrix(0.05,0,0,0.05,80.95,0)" xlink:href="#bf"/><use transform="matrix(0.05,0,0,0.05,90.95,0)" xlink:href="#aZ"/><use transform="matrix(0.05,0,0,0.05,95.95,0)" xlink:href="#aR"/></g><g id="aF"><use transform="matrix(0.05,0,0,0.05,0,0)" xlink:href="#cf"/><use transform="matrix(0.05,0,0,0.05,12.950000000000001,0)" xlink:href="#bp"/><use transform="matrix(0.05,0,0,0.05,16.900000000000002,0)" xlink:href="#bk"/><use transform="matrix(0.05,0,0,0.05,25.900000000000002,0)" xlink:href="#bH"/><use transform="matrix(0.05,0,0,0.05,35.900000000000006,0)" xlink:href="#br"/><use transform="matrix(0.05,0,0,0.05,39.85000000000001,0)" xlink:href="#bI"/><use transform="matrix(0.05,0,0,0.05,49.85000000000001,0)" xlink:href="#cg"/><use transform="matrix(0.05,0,0,0.05,58.85,0)" xlink:href="#bj"/><use transform="matrix(0.05,0,0,0.05,68.85000000000001,0)" xlink:href="#bn"/></g><g id="aG"><use transform="matrix(0.05,0,0,0.05,0,0)" xlink:href="#bo"/><use transform="matrix(0.05,0,0,0.05,12.950000000000001,0)" xlink:href="#bp"/><use transform="matrix(0.05,0,0,0.05,16.900000000000002,0)" xlink:href="#bm"/><use transform="matrix(0.05,0,0,0.05,21.900000000000002,0)" xlink:href="#bq"/></g><g id="aH"><use transform="matrix(0.05,0,0,0.05,0,0)" xlink:href="#bm"/><use transform="matrix(0.05,0,0,0.05,5,0)" xlink:href="#bj"/><use transform="matrix(0.05,0,0,0.05,15,0)" xlink:href="#ci"/><use transform="matrix(0.05,0,0,0.05,24,0)" xlink:href="#bm"/><use transform="matrix(0.05,0,0,0.05,29,0)" xlink:href="#cj"/><use transform="matrix(0.05,0,0,0.05,39,0)" xlink:href="#bs"/><use transform="matrix(0.05,0,0,0.05,49,0)" xlink:href="#bs"/><use transform="matrix(0.05,0,0,0.05,59,0)" xlink:href="#ck"/></g><g id="aI"><use transform="matrix(0.05,0,0,0.05,0,0)" xlink:href="#bv"/><use transform="matrix(0.05,0,0,0.05,14.950000000000001,0)" xlink:href="#bI"/><use transform="matrix(0.05,0,0,0.05,24.950000000000003,0)" xlink:href="#bl"/><use transform="matrix(0.05,0,0,0.05,34.95,0)" xlink:href="#bI"/><use transform="matrix(0.05,0,0,0.05,44.95,0)" xlink:href="#bt"/><use transform="matrix(0.05,0,0,0.05,54.95,0)" xlink:href="#bj"/><use transform="matrix(0.05,0,0,0.05,64.95,0)" xlink:href="#bv"/><use transform="matrix(0.05,0,0,0.05,79.9,0)" xlink:href="#bj"/><use transform="matrix(0.05,0,0,0.05,89.9,0)" xlink:href="#bl"/><use transform="matrix(0.05,0,0,0.05,99.9,0)" xlink:href="#bm"/></g><g id="aJ"><use transform="matrix(0.05,0,0,0.05,0,0)" xlink:href="#aW"/><use transform="matrix(0.05,0,0,0.05,9,0)" xlink:href="#ba"/><use transform="matrix(0.05,0,0,0.05,19,0)" xlink:href="#bg"/><use transform="matrix(0.05,0,0,0.05,29,0)" xlink:href="#bg"/><use transform="matrix(0.05,0,0,0.05,39,0)" xlink:href="#aR"/><use transform="matrix(0.05,0,0,0.05,48,0)" xlink:href="#aS"/></g><g id="aK"><use transform="matrix(0.05,0,0,0.05,0,0)" xlink:href="#bK"/><use transform="matrix(0.05,0,0,0.05,12.950000000000001,0)" xlink:href="#ba"/><use transform="matrix(0.05,0,0,0.05,22.950000000000003,0)" xlink:href="#bc"/><use transform="matrix(0.05,0,0,0.05,32.95,0)" xlink:href="#aZ"/></g><path fill="#333" d="M141 0L90-78 38 0H4l68-98-65-92h35l48 74 47-74h35l-64 92 68 98h-35" id="cs"/><path fill="#333" d="M115-194c53 0 69 39 70 98 0 66-23 100-70 100C84 3 66-7 56-30L54 0H23l1-261h32v101c10-23 28-34 59-34zm-8 174c40 0 45-34 45-75 0-40-5-75-45-74-42 0-51 32-51 76 0 43 10 73 51 73" id="ct"/><g id="aL"><use transform="matrix(0.05,0,0,0.05,0,0)" xlink:href="#aZ"/><use transform="matrix(0.05,0,0,0.05,5,0)" xlink:href="#aS"/><use transform="matrix(0.05,0,0,0.05,15,0)" xlink:href="#cs"/><use transform="matrix(0.05,0,0,0.05,24,0)" xlink:href="#aZ"/><use transform="matrix(0.05,0,0,0.05,29,0)" xlink:href="#ct"/><use transform="matrix(0.05,0,0,0.05,39,0)" xlink:href="#bg"/><use transform="matrix(0.05,0,0,0.05,49,0)" xlink:href="#bg"/><use transform="matrix(0.05,0,0,0.05,59,0)" xlink:href="#aX"/><use transform="matrix(0.05,0,0,0.05,68,0)" xlink:href="#aR"/></g><path fill="#333" d="M24 0v-261h32V0H24" id="cu"/><g id="aM"><use transform="matrix(0.05,0,0,0.05,0,0)" xlink:href="#cu"/><use transform="matrix(0.05,0,0,0.05,3.95,0)" xlink:href="#aS"/><use transform="matrix(0.05,0,0,0.05,13.949999999999998,0)" xlink:href="#bc"/><use transform="matrix(0.05,0,0,0.05,23.95,0)" xlink:href="#aT"/><use transform="matrix(0.05,0,0,0.05,29.899999999999995,0)" xlink:href="#bf"/><use transform="matrix(0.05,0,0,0.05,39.9,0)" xlink:href="#aS"/><use transform="matrix(0.05,0,0,0.05,49.9,0)" xlink:href="#aT"/><use transform="matrix(0.05,0,0,0.05,55.85,0)" xlink:href="#aR"/></g><g id="aN"><use transform="matrix(0.05,0,0,0.05,0,0)" xlink:href="#ba"/><use transform="matrix(0.05,0,0,0.05,10,0)" xlink:href="#bc"/><use transform="matrix(0.05,0,0,0.05,20,0)" xlink:href="#bL"/><use transform="matrix(0.05,0,0,0.05,29,0)" xlink:href="#aS"/></g><g id="aO"><use transform="matrix(0.05,0,0,0.05,0,0)" xlink:href="#bc"/><use transform="matrix(0.05,0,0,0.05,10,0)" xlink:href="#aW"/><use transform="matrix(0.05,0,0,0.05,19,0)" xlink:href="#aW"/><use transform="matrix(0.05,0,0,0.05,28,0)" xlink:href="#aS"/><use transform="matrix(0.05,0,0,0.05,38,0)" xlink:href="#aR"/><use transform="matrix(0.05,0,0,0.05,47,0)" xlink:href="#aR"/></g><g id="aP"><use transform="matrix(0.05,0,0,0.05,0,0)" xlink:href="#aZ"/><use transform="matrix(0.05,0,0,0.05,5,0)" xlink:href="#bg"/></g></defs></g></svg>